<svg width="163" height="163" viewBox="0 0 163 163" fill="none" xmlns="http://www.w3.org/2000/svg">
<path fill-rule="evenodd" clip-rule="evenodd" d="M24.897 81.2756C24.897 112.32 50.149 137.578 81.19 137.578C112.225 137.578 137.471 112.32 137.471 81.2756C137.471 50.2506 112.225 24.9916 81.19 24.9916C50.149 24.9916 24.897 50.2506 24.897 81.2756ZM143.932 64.2296L162.441 80.9946L144.016 97.8576L151.664 121.633L127.293 127.052L122.022 151.449L98.201 143.933L81.437 162.436L64.578 144.028L40.792 151.66L35.394 127.273L10.989 122.012L18.502 98.1986L0 81.4326L18.411 64.5686L10.77 40.7916L35.15 35.3896L40.421 10.9906L64.234 18.5066L81.008 0.000610352L97.867 18.4096L121.635 10.7666L127.037 35.1526L151.451 40.4156L143.932 64.2296ZM45.7008 117.168C26.1168 97.5821 26.1168 65.7201 45.6968 46.1411C65.2878 26.5471 97.1578 26.5471 116.744 46.1351C136.313 65.7121 136.324 97.5821 116.733 117.171C97.1548 136.751 65.2878 136.751 45.7008 117.168Z" fill="#F05514
"/>
</svg>
