<?xml version="1.0" encoding="UTF-8"?>
<svg version="1.1" xmlns="http://www.w3.org/2000/svg" width="1280" height="730">
<path d="M0 0 C321.19974241 0 321.19974241 0 382.625 60.125 C390.51640127 68.05261251 397.0633288 76.53535225 403 86 C403.6177832 86.97936523 403.6177832 86.97936523 404.24804688 87.97851562 C427.24233527 125.0600666 434.12747426 172.24773985 424.39794922 214.62207031 C417.12639435 244.37280639 403.1166711 268.92619933 382 291 C380.72769531 292.33417969 380.72769531 292.33417969 379.4296875 293.6953125 C373.97237978 299.2894806 368.21562965 304.26554167 362 309 C362.60513428 309.24016846 363.21026855 309.48033691 363.83374023 309.7277832 C395.90198414 322.49892354 424.43498138 337.55278366 449.50830078 361.57128906 C450.88165496 362.88665218 452.2664824 364.1900085 453.65234375 365.4921875 C460.51822716 372.10859963 466.3479499 379.3471695 472 387 C472.41749512 387.55719727 472.83499023 388.11439453 473.26513672 388.68847656 C483.01779738 401.86482016 491.02659157 417.38918306 496 433 C497.54031271 428.97882966 499.03438338 424.96943064 500.33203125 420.86328125 C509.13843023 393.44770663 523.09000878 367.52664343 541 345 C541.71542969 344.0925 542.43085937 343.185 543.16796875 342.25 C550.46468016 333.15816844 558.10576567 324.12525449 567.06640625 316.625 C569.12634896 314.89381582 571.08597688 313.0756154 573.0625 311.25 C604.00751442 283.88366072 643.55864529 266.99098691 684 260 C684.90669434 259.83773926 685.81338867 259.67547852 686.74755859 259.50830078 C715.89167042 254.51966903 747.88071545 255.05095029 777 260 C777.9792041 260.16097168 778.9584082 260.32194336 779.96728516 260.48779297 C819.68752334 267.24081729 857.05040669 283.87352409 887 311 C887.98484375 311.86496094 888.9696875 312.72992188 889.984375 313.62109375 C905.40967413 327.31625798 917.64673418 344.23406772 928 362 C928.35400879 362.5995752 928.70801758 363.19915039 929.07275391 363.81689453 C937.72335495 378.62155995 942.97202562 394.65908326 948 411 C948.495 209.04 948.495 209.04 949 3 C990.25 3 1031.5 3 1074 3 C1074 239.94 1074 476.88 1074 721 C1032.75 721 991.5 721 949 721 C949 658.3 949 595.6 949 531 C840.1 531 731.2 531 619 531 C625.76583668 564.82918338 637.14650539 594.43322188 667.0390625 614.546875 C702.79195198 637.38950322 747.84530247 638.92986719 788.24609375 630.12890625 C810.62353356 624.97112974 834.03218607 616.04722981 851.87109375 601.30078125 C854 600 854 600 856.0390625 600.00390625 C858.77127991 601.39178561 860.07063974 603.19557341 861.9375 605.625 C865.62104168 610.29283232 869.4011572 614.83378357 873.3125 619.3125 C874.43116489 620.59750365 875.54965348 621.88266082 876.66796875 623.16796875 C877.22274902 623.80524902 877.7775293 624.4425293 878.34912109 625.09912109 C885.24327435 633.03728691 892.06129271 641.04203278 898.83398438 649.08398438 C901.30686682 652.01627023 903.8006805 654.92804862 906.3203125 657.8203125 C906.87138672 658.45517578 907.42246094 659.09003906 907.99023438 659.74414062 C909.05805523 660.9727087 910.12952097 662.19812086 911.20507812 663.41992188 C913.38870535 665.93679341 914.93505305 667.80515916 916 671 C891.15340651 692.38809329 863.24279823 708.02510433 832 718 C831.17016602 718.26554688 830.34033203 718.53109375 829.48535156 718.8046875 C809.784685 725.00092673 788.74871403 730.10689581 768.01147461 730.17700195 C766.71914665 730.18685875 766.71914665 730.18685875 765.40071106 730.19691467 C762.56792075 730.21651091 759.73518343 730.22828728 756.90234375 730.23828125 C755.4339162 730.24439454 755.4339162 730.24439454 753.93582344 730.25063133 C748.74164166 730.27144637 743.54748585 730.28576088 738.35327148 730.29516602 C733.05547298 730.30614706 727.75810417 730.34046292 722.46045589 730.38033772 C718.33076848 730.40682516 714.20117787 730.41488646 710.07141304 730.41844749 C708.12267763 730.42324079 706.17394429 730.43463929 704.22529411 730.45348549 C685.3300835 730.62469183 667.07386668 727.83189611 648.875 722.75 C647.79718262 722.45262939 646.71936523 722.15525879 645.60888672 721.84887695 C611.25959089 712.11328485 580.27820229 695.05443423 554.43212891 670.36474609 C553.05300947 669.05051533 551.65764787 667.75339339 550.26171875 666.45703125 C524.67644663 641.98255242 499.83426113 600.79889827 497 565 C496.34 565 495.68 565 495 565 C494.814375 566.134375 494.62875 567.26875 494.4375 568.4375 C484.46895383 612.34006976 448.51365918 653.22587146 411.5 676.92578125 C407.05306092 679.70941243 402.53999205 682.37163886 398 685 C397.08347656 685.54068115 397.08347656 685.54068115 396.1484375 686.09228516 C288.96765393 748.90479033 93.4793584 721 0 721 C0 483.07 0 245.14 0 0 Z M128 98 C128 160.37 128 222.74 128 287 C203.33402558 289.91806595 203.33402558 289.91806595 269.16796875 257.8671875 C285.44205807 241.28080222 293.8220974 219.05833573 295 196 C295.05285156 195.06414062 295.10570312 194.12828125 295.16015625 193.1640625 C295.85292235 169.24857178 288.83709637 146.96708609 272.38647461 129.34765625 C249.63509972 105.91958948 217.16349424 100.59695785 186 98 C166.86 98 147.72 98 128 98 Z M649.46484375 384.4921875 C636.57053408 397.92459047 622 421.71626487 622 441 C691.3 441 760.6 441 832 441 C831.32433459 434.24334593 830.69566879 428.80691903 828.5625 422.5625 C828.1754187 421.42349243 828.1754187 421.42349243 827.78051758 420.26147461 C822.88202906 406.5218117 816.00967157 393.6666103 806 383 C805.24332031 382.15308594 804.48664063 381.30617188 803.70703125 380.43359375 C784.95909008 360.40112806 757.64439439 352.02632293 730.84375 351.0390625 C698.80430954 350.42692685 672.13936069 362.20198441 649.46484375 384.4921875 Z M128 384 C128 461.22 128 538.44 128 618 C236.08693822 625.11758908 236.08693822 625.11758908 334 584 C334.69222656 583.39671875 335.38445312 582.7934375 336.09765625 582.171875 C354.78329377 564.63546804 365.77222914 537.73876648 367.20336914 512.39916992 C367.30324596 508.51348613 367.32940584 504.6369145 367.3125 500.75 C367.30876877 499.72320129 367.30876877 499.72320129 367.30496216 498.67565918 C367.1428089 469.82164455 358.13053101 443.95599247 337.49658203 423.47265625 C337.00270996 422.98667969 336.50883789 422.50070312 336 422 C335.09121094 421.0925 334.18242187 420.185 333.24609375 419.25 C326.75989894 413.05648647 319.82670127 408.34917623 312 404 C310.90945313 403.39285156 309.81890625 402.78570312 308.6953125 402.16015625 C254.9516861 373.7989123 183.34730747 384 128 384 Z " fill="#0066A4" transform="translate(0,0)"/>
<path d="M0 0 C40.26 0 80.52 0 122 0 C122 236.94 122 473.88 122 718 C81.74 718 41.48 718 0 718 C0 481.06 0 244.12 0 0 Z " fill="#0067A3" transform="translate(1156,3)"/>
</svg>
