<svg width="91" height="30" viewBox="0 0 91 30" fill="none" xmlns="http://www.w3.org/2000/svg"><title>Gopuff</title><path d="M62.9358 7.39392V16.2206C62.9358 18.5024 62.2106 19.8644 60.4948 19.8644C58.7967 19.8644 58.0537 18.5024 58.0537 16.2206V7.39392H53.207V16.5567C53.207 21.3503 56.1257 23.3314 60.4948 23.3314C64.1033 23.3314 67.7825 21.3503 67.7825 16.5567V7.39392H62.9358Z" fill="#00A4FF"></path><path d="M25.9837 7.04004C20.9778 7.04004 17.6523 10.2771 17.6523 15.3007C17.6523 20.3419 21.1724 23.3313 25.7007 23.3313C29.8752 23.3313 33.9259 20.7311 33.9259 15.0353C33.9259 10.3301 30.7597 7.04004 25.9837 7.04004ZM25.8422 19.882C23.7726 19.882 22.6582 17.8655 22.6582 15.1945C22.6582 12.8773 23.5427 10.507 25.8599 10.507C28.0533 10.507 28.9377 12.8773 28.9377 15.1768C28.9377 17.9893 27.7349 19.882 25.8422 19.882Z" fill="#00A4FF"></path><path d="M14.204 6.29712C12.5767 7.41151 12.1521 9.10962 12.1521 9.10962C11.2677 7.99523 9.44575 7.1108 7.30542 7.1108C3.73231 7.1108 0 10.2948 0 15.3183C0 19.7759 3.14858 23.2075 7.30542 23.2075C9.02123 23.2075 10.1887 22.783 11.1085 21.8632C11.1085 21.8632 11.1085 22.0754 11.1085 22.1992C11.1085 25.0294 9.35731 26.303 7.05778 26.303C4.81132 26.303 3.21934 25.5601 2.22877 24.9941L1.27358 28.6733C2.56486 29.3455 5.12972 29.9999 7.1816 29.9999C9.48113 29.9999 11.7983 29.5577 13.4965 28.0896C15.2653 26.533 15.8667 24.0742 15.8667 21.0849V14.1863C15.9021 11.7983 16.7512 10.1179 17.7948 8.93273L14.204 6.29712ZM8.18986 19.9351C6.12028 19.9351 5.0059 17.9186 5.0059 15.2476C5.0059 12.9304 5.89033 10.5601 8.20755 10.5601C10.3833 10.5778 11.2677 12.9304 11.2677 15.2299C11.2677 18.0424 10.0825 19.9351 8.18986 19.9351Z" fill="#00A4FF"></path><path d="M43.5678 7.04004C38.3673 7.04004 35.5371 10.4893 35.5371 15.5837V29.6639H40.3838V21.9516C41.2506 22.8537 42.6303 23.349 44.4876 23.349C47.9546 23.349 51.5807 20.678 51.5807 14.9999C51.5807 10.0117 48.2906 7.04004 43.5678 7.04004ZM43.5501 19.882C41.4805 19.882 40.3661 17.8655 40.3661 15.1945C40.3661 12.8773 41.2506 10.507 43.5678 10.507C45.7612 10.507 46.6456 12.8773 46.6456 15.1768C46.6279 17.9893 45.4428 19.882 43.5501 19.882Z" fill="#00A4FF"></path><path d="M90.1953 4.0684V0.353774C89.5231 0.159198 88.6918 0.0176887 87.6304 0.0176887C86.2154 0.0176887 84.5349 0.424528 83.3144 1.57429C81.9347 2.86557 81.351 4.93514 81.351 6.79245V7.37618H76.3451V6.58019C76.2743 2.8125 79.9536 3.9092 80.3781 4.05071V0.336085C79.7059 0.141509 78.8746 0 77.8132 0C76.3981 0 74.7177 0.40684 73.4972 1.5566C72.1175 2.84788 71.5338 4.91745 71.5338 6.77476V7.35849H69.4642V10.9316H71.5338V22.9776C71.5338 26.2854 69.2342 25.8078 68.2083 25.6486L67.6953 29.2217C68.1906 29.4163 68.9689 29.6108 69.7649 29.6108C71.9583 29.6285 73.5149 28.9564 74.5585 27.9304C75.8675 26.6392 76.3628 24.7818 76.3628 22.9422L76.3981 10.9316H81.3687V22.9776C81.4394 26.4623 78.7154 25.7547 78.0432 25.6486L77.5302 29.2217C78.0255 29.4163 78.8038 29.6108 79.5998 29.6108C81.7932 29.6285 83.3498 28.9564 84.3934 27.9304C85.7024 26.6392 86.1977 24.7818 86.1977 22.9422L86.233 10.9316H90.213V7.39387H86.18V6.59788C86.233 2.79481 89.7708 3.94458 90.1953 4.0684Z" fill="#00A4FF"></path></svg>