<svg xmlns="http://www.w3.org/2000/svg" version="1.1" width="1500" height="565">
<path d="M0 0 C0.78652954 0.00370605 1.57305908 0.00741211 2.38342285 0.01123047 C15.06036709 0.09597026 27.06727615 0.92809751 39.3125 4.4375 C40.74891846 4.8401709 40.74891846 4.8401709 42.21435547 5.25097656 C61.33282371 10.75519363 77.8797851 18.8457529 93.3125 31.4375 C94.06660156 32.03949219 94.82070313 32.64148438 95.59765625 33.26171875 C97.2201916 34.59393962 98.77657043 36.0062929 100.3125 37.4375 C100.3125 38.0975 100.3125 38.7575 100.3125 39.4375 C100.86808594 39.66050781 101.42367187 39.88351563 101.99609375 40.11328125 C123.61290084 52.47095006 137.04802422 85.76296424 143.17578125 108.11328125 C143.55692119 109.55409847 143.93593041 110.99548153 144.3125 112.4375 C144.63605469 113.64792969 144.95960938 114.85835938 145.29296875 116.10546875 C149.6814871 135.98772323 149.6243394 160.77491431 144.3125 180.4375 C144.08143555 181.34612793 143.85037109 182.25475586 143.61230469 183.19091797 C137.27531035 207.87331164 126.91205999 227.95338673 109.3125 246.4375 C107.77309475 248.20933187 106.26052171 249.99855901 104.76171875 251.8046875 C95.69850546 262.01607066 84.10075373 269.72142696 72.3125 276.4375 C71.28253906 277.03304688 70.25257813 277.62859375 69.19140625 278.2421875 C62.02906529 282.1113993 54.75980373 284.78071938 47 287.1875 C46.10039551 287.46924072 45.20079102 287.75098145 44.27392578 288.04125977 C29.99343262 292.27088082 15.91652161 294.0062392 1.0625 293.875 C0.30214447 293.87129395 -0.45821106 293.86758789 -1.24160767 293.86376953 C-13.75035172 293.77740645 -25.60322643 292.88784783 -37.6875 289.4375 C-38.65719727 289.16373535 -39.62689453 288.8899707 -40.62597656 288.60791016 C-62.298833 282.31083612 -82.21103718 272.12936935 -98.6875 256.4375 C-98.6875 255.7775 -98.6875 255.1175 -98.6875 254.4375 C-99.24308594 254.21449219 -99.79867187 253.99148438 -100.37109375 253.76171875 C-122.25145492 241.25338412 -135.32249745 208.01658791 -141.6875 185.4375 C-142.04980713 184.16060303 -142.04980713 184.16060303 -142.41943359 182.85791016 C-148.1451796 161.59024358 -148.4456423 134.7521441 -142.6875 113.4375 C-142.34090332 112.07455811 -142.34090332 112.07455811 -141.98730469 110.68408203 C-134.82729304 82.79606182 -121.40432042 59.68437365 -100.6875 39.4375 C-100.0275 39.4375 -99.3675 39.4375 -98.6875 39.4375 C-98.47738281 38.87546875 -98.26726562 38.3134375 -98.05078125 37.734375 C-96.22067809 34.65099203 -93.70413736 32.79626852 -90.875 30.6875 C-90.2967749 30.25139404 -89.7185498 29.81528809 -89.12280273 29.3659668 C-83.21843182 24.9810737 -77.0780728 21.07837461 -70.6875 17.4375 C-69.65753906 16.84195313 -68.62757813 16.24640625 -67.56640625 15.6328125 C-60.38235823 11.75187419 -53.09877122 9.0913882 -45.3125 6.6875 C-44.4045166 6.40575928 -43.4965332 6.12401855 -42.56103516 5.83374023 C-28.34597846 1.63833289 -14.77055851 -0.12564673 0 0 Z M-87.921875 61.38671875 C-110.17568252 87.23461465 -125.0023386 118.60291266 -122.6875 153.4375 C-119.85130686 187.21728754 -104.88152716 218.57650103 -78.98974609 240.90136719 C-60.09121233 256.31182852 -38.68174727 265.57768111 -14.6875 269.4375 C-13.87152344 269.56898438 -13.05554688 269.70046875 -12.21484375 269.8359375 C-10.03474935 270.12872695 -7.8835514 270.31233645 -5.6875 270.4375 C-4.78644531 270.49035156 -3.88539063 270.54320312 -2.95703125 270.59765625 C30.46181452 271.57184314 62.66846106 257.74020415 86.84570312 234.99511719 C110.35433019 211.66051091 123.84949211 180.44774566 124.5 147.3125 C124.13581022 112.83586704 109.5467648 82.91889316 86.1484375 58.1796875 C77.24896874 49.57441605 67.18892535 43.23909555 56.3125 37.4375 C55.33796875 36.89222656 54.3634375 36.34695312 53.359375 35.78515625 C7.81450841 11.33278935 -52.94960938 24.38323568 -87.921875 61.38671875 Z " fill="#000000" transform="translate(280.6875,135.5625)"/>
<path d="M0 0 C17.07165881 12.48318994 28.36657677 29.6214938 31.99755859 50.56103516 C35.55257579 75.7329239 33.88818228 102.87162623 18.71630859 123.99853516 C16.78861134 126.49671148 14.79226449 128.88225604 12.69677734 131.24072266 C12.13216797 131.87623047 11.56755859 132.51173828 10.98583984 133.16650391 C-1.87992678 146.78730378 -18.55950445 153.0780198 -36.86962891 154.52197266 C-55.33030153 155.02601833 -71.94367967 150.01407008 -86.30322266 138.24072266 C-87.29322266 137.25072266 -88.28322266 136.26072266 -89.30322266 135.24072266 C-89.63322266 161.97072266 -89.96322266 188.70072266 -90.30322266 216.24072266 C-100.20322266 216.24072266 -110.10322266 216.24072266 -120.30322266 216.24072266 C-120.30322266 142.32072266 -120.30322266 68.40072266 -120.30322266 -7.75927734 C-111.39322266 -7.75927734 -102.48322266 -7.75927734 -93.30322266 -7.75927734 C-92.86572266 0.11572266 -92.86572266 0.11572266 -92.73510742 2.59179688 C-92.56730722 6.54536681 -92.56730722 6.54536681 -91.30322266 10.24072266 C-90.79275391 9.67224609 -90.28228516 9.10376953 -89.75634766 8.51806641 C-67.53396039 -15.08336972 -26.63670391 -18.18622691 0 0 Z M-76.99072266 29.24072266 C-88.47358195 41.3332913 -91.81557195 57.14213036 -91.7253418 73.30908203 C-91.32996055 87.79688781 -87.13575128 102.51390273 -76.92822266 113.17822266 C-75.41489177 114.5639835 -73.87489279 115.92149695 -72.30322266 117.24072266 C-71.41570313 117.99482422 -71.41570313 117.99482422 -70.51025391 118.76416016 C-62.03562576 124.93773033 -48.63584499 127.4948881 -38.30322266 125.93969727 C-36.28316238 125.53750997 -34.29749746 125.06793664 -32.30322266 124.55322266 C-31.60479248 124.37533203 -30.9063623 124.19744141 -30.18676758 124.01416016 C-24.86326108 122.57184612 -20.5892409 120.67752983 -16.30322266 117.24072266 C-15.49369141 116.63744141 -14.68416016 116.03416016 -13.85009766 115.41259766 C-3.18846698 106.32077763 2.7564481 92.69475897 3.88574219 78.93896484 C4.87793482 60.92189282 1.76017921 44.61791852 -10.11572266 30.42822266 C-19.59785119 20.31153486 -30.50820303 17.17066691 -44.01757812 16.2890625 C-56.94382237 16.01568113 -67.48207797 20.65741588 -76.99072266 29.24072266 Z " fill="#000000" transform="translate(614.30322265625,212.75927734375)"/>
<path d="M0 0 C0 0.66 0 1.32 0 2 C0.58265625 2.268125 1.1653125 2.53625 1.765625 2.8125 C4.02786601 4.01480991 5.80576318 5.33825913 7.75 7 C8.36359375 7.515625 8.9771875 8.03125 9.609375 8.5625 C11 10 11 10 11 12 C11.66 12 12.32 12 13 12 C14.65797056 14.04897275 16.1833625 16.09162156 17.6875 18.25 C18.13013184 18.8780957 18.57276367 19.50619141 19.02880859 20.15332031 C30 35.92168004 30 35.92168004 30 40 C28.41455078 41.1574707 28.41455078 41.1574707 26.1953125 42.42578125 C25.38916504 42.89008545 24.58301758 43.35438965 23.75244141 43.83276367 C22.88538574 44.32107666 22.01833008 44.80938965 21.125 45.3125 C20.2489209 45.81305908 19.3728418 46.31361816 18.47021484 46.8293457 C13.49289016 49.65482645 8.47398192 52.31129687 3.3203125 54.80078125 C-0.51998873 56.7855834 -4.12659727 59.14129069 -7.7890625 61.43359375 C-14.53955519 65.59759266 -21.46128998 69.47842352 -28.33959961 73.42578125 C-34.28861136 76.84450792 -40.20771949 80.29748465 -46.0625 83.875 C-51.89933923 87.44043751 -57.90809898 90.60376898 -63.98046875 93.74731445 C-69.65360049 96.72319955 -74.90475218 100.10657968 -80 104 C-78.80081191 105.42441631 -77.59013798 106.83916564 -76.375 108.25 C-75.70210937 109.03890625 -75.02921875 109.8278125 -74.3359375 110.640625 C-66.26853484 118.7889715 -54.01884935 122.24958113 -42.75 122.5 C-36.21180313 122.23252831 -30.21851739 120.99200418 -24 119 C-23.13632812 118.74476563 -22.27265625 118.48953125 -21.3828125 118.2265625 C-14.15071137 115.7708023 -9.30314299 111.38125803 -4 106 C-3.26394531 105.26265625 -2.52789063 104.5253125 -1.76953125 103.765625 C7.16360538 94.31292507 11 84.11247106 11 71 C12.46533203 69.91845703 12.46533203 69.91845703 14.5078125 68.7578125 C15.24773437 68.33113281 15.98765625 67.90445313 16.75 67.46484375 C17.53375 67.02269531 18.3175 66.58054687 19.125 66.125 C20.6493984 65.2542843 22.17285312 64.38191418 23.6953125 63.5078125 C24.43040039 63.08918945 25.16548828 62.67056641 25.92285156 62.23925781 C27.81285162 61.11165552 29.58184284 59.90126656 31.3671875 58.6171875 C32.67042969 57.81667969 32.67042969 57.81667969 34 57 C34.99 57.33 35.98 57.66 37 58 C42.00275516 71.28499339 37.93967129 90.30407552 32.33984375 102.86328125 C23.20482306 121.88229286 6.26058874 138.40694259 -13.6171875 145.796875 C-34.3122154 153.01286322 -54.92892925 153.63394937 -75.12329102 144.31494141 C-96.35649373 134.00346532 -112.86989152 117.19266823 -121.13427734 94.94677734 C-123.93015527 86.02608258 -124.59578644 77.94221878 -124.46655273 68.64941406 C-124.43743238 66.36970656 -124.44603087 64.09231707 -124.45898438 61.8125 C-124.43113585 40.82792258 -117.39293452 24.70800913 -102.6953125 9.63671875 C-73.94051582 -17.65676859 -33.08104964 -22.05403309 0 0 Z M-80.90625 26.74609375 C-91.9798056 38.66669371 -97.30258437 51.21185828 -97.234375 67.39453125 C-96.91959737 72.23686043 -95.74491259 76.49230914 -94 81 C-77.7301678 71.77660921 -61.55291842 62.38750654 -45.5625 52.6875 C-38.72846697 48.54446533 -31.79349117 44.70109739 -24.69580078 41.03027344 C-19.55627304 38.35408437 -14.69349142 35.40980146 -10 32 C-13.13123643 24.84288816 -18.36354477 20.95460003 -25 17 C-28.78113441 15.54156244 -32.51699973 14.59606039 -36.5 13.875 C-37.84578125 13.62363281 -37.84578125 13.62363281 -39.21875 13.3671875 C-54.77477548 11.31344256 -69.58235936 15.93506048 -80.90625 26.74609375 Z " fill="#000000" transform="translate(793,216)"/>
<path d="M0 0 C9.24 0 18.48 0 28 0 C28.33 45.87 28.66 91.74 29 139 C36.28638385 130.11425584 36.28638385 130.11425584 43.4375 121.125 C43.89648682 120.54041016 44.35547363 119.95582031 44.82836914 119.35351562 C47.07328819 116.48828492 49.30181269 113.61219583 51.5 110.7109375 C56.28886007 104.39634662 61.25119741 98.30621442 66.44873047 92.32275391 C75.60804897 82.14664422 75.60804897 82.14664422 83.14550781 70.83935547 C85.54224894 68.462177 87.39125406 68.54539718 90.67619324 68.54681396 C91.80134087 68.57778168 91.80134087 68.57778168 92.94921875 68.609375 C93.72183548 68.61503479 94.49445221 68.62069458 95.29048157 68.62652588 C97.75678629 68.64890673 100.22163492 68.69910297 102.6875 68.75 C104.36000505 68.77006294 106.03253289 68.78831408 107.70507812 68.8046875 C111.80394596 68.84877669 115.90172617 68.91781325 120 69 C118.4088854 73.2536509 116.49031491 76.05546004 113.5 79.5 C109.86478415 83.75159029 106.33596706 88.056466 102.9375 92.5 C102.52089111 93.04422607 102.10428223 93.58845215 101.67504883 94.14916992 C98.98221079 97.68138861 96.33312894 101.24476316 93.6875 104.8125 C89.48668101 110.44354435 85.07669382 115.88868231 80.60424805 121.3059082 C79.0537632 123.19189062 77.52226278 125.09118622 76 127 C75.49275391 127.62567871 74.98550781 128.25135742 74.46289062 128.89599609 C71.75898486 132.07309104 71.75898486 132.07309104 71.24414062 135.99145508 C72.54865706 139.45794628 74.70817541 142.43267077 76.75 145.5 C77.47558105 146.60637817 77.47558105 146.60637817 78.21582031 147.73510742 C79.25883665 149.32535878 80.30417089 150.91409177 81.3515625 152.50146484 C84.16357475 156.76362915 86.95982633 161.03601372 89.75 165.3125 C90.30631104 166.16481201 90.86262207 167.01712402 91.43579102 167.89526367 C94.89145838 173.21664994 98.14718676 178.61414104 101.29296875 184.125 C104.02326615 188.72339562 107.03888419 193.12747286 110.0234375 197.5625 C113.76144111 203.12118043 117.44797349 208.71335206 121.125 214.3125 C121.80111328 215.33384033 122.47722656 216.35518066 123.17382812 217.4074707 C123.79966797 218.36226318 124.42550781 219.31705566 125.0703125 220.30078125 C125.63508301 221.15841064 126.19985352 222.01604004 126.78173828 222.8996582 C128 225 128 225 128 227 C123.32344411 227.34885367 118.65456817 227.60116939 113.96801758 227.76904297 C112.37911109 227.83903032 110.79109339 227.93428366 109.20532227 228.05615234 C96.39910488 229.01490659 96.39910488 229.01490659 92.39639282 225.65319824 C89.16024353 221.82985597 87.07425141 217.53021606 85 213 C84.19743028 211.49466346 83.38806287 209.99285036 82.5625 208.5 C82.18996094 207.80648437 81.81742188 207.11296875 81.43359375 206.3984375 C79.12093092 202.52929588 76.4330559 198.92626121 73.78662109 195.28198242 C71.304548 191.85503445 68.92795346 188.40504758 66.6875 184.8125 C63.29861325 179.40331538 59.76119306 174.10066902 56.1875 168.8125 C55.61153076 167.94923096 55.03556152 167.08596191 54.44213867 166.1965332 C53.62579956 164.99516724 53.62579956 164.99516724 52.79296875 163.76953125 C52.3033667 163.04354736 51.81376465 162.31756348 51.30932617 161.56958008 C50.87724854 161.05161865 50.4451709 160.53365723 50 160 C47.86066476 159.76776339 47.86066476 159.76776339 46.37109375 161.58203125 C45.41396484 162.68611328 45.41396484 162.68611328 44.4375 163.8125 C43.73238281 164.62460937 43.02726563 165.43671875 42.30078125 166.2734375 C39.1144161 170.04946954 35.98636672 173.87054576 32.8828125 177.71484375 C31 180 31 180 29 182 C28.67022394 184.01833943 28.67022394 184.01833943 28.68115234 186.35791016 C28.66128265 187.25869293 28.64141296 188.15947571 28.62094116 189.08755493 C28.60361435 190.54855118 28.60361435 190.54855118 28.5859375 192.0390625 C28.56657135 193.03505463 28.5472052 194.03104675 28.5272522 195.05722046 C28.46735035 198.2463925 28.42102862 201.43560043 28.375 204.625 C28.33682999 206.78387013 28.29777884 208.94272488 28.2578125 211.1015625 C28.15997742 216.40096276 28.08049266 221.70019406 28 227 C18.76 227 9.52 227 0 227 C0 152.09 0 77.18 0 0 Z " fill="#000000" transform="translate(959,136)"/>
<path d="M0 0 C9.9 0 19.8 0 30 0 C32.89751911 6.95404586 35.76715296 13.8497134 38.3828125 20.90234375 C38.67873795 21.69414032 38.97466339 22.48593689 39.27955627 23.30172729 C40.2301374 25.84620695 41.17766687 28.39180951 42.125 30.9375 C43.46634832 34.53426509 44.80911018 38.13050109 46.15234375 41.7265625 C46.48363785 42.6140065 46.81493195 43.5014505 47.15626526 44.41578674 C49.08121881 49.56544574 51.0285015 54.70541924 53.00390625 59.8359375 C58.74033036 74.73834785 64.09007095 89.73153686 69.20581055 104.85668945 C69.57555748 105.94900375 69.57555748 105.94900375 69.95277405 107.06338501 C70.41605907 108.43416803 70.87783659 109.80546177 71.33787537 111.17733765 C72.1275262 113.51851272 72.89349276 115.78698553 74 118 C74.25652344 117.195625 74.51304688 116.39125 74.77734375 115.5625 C77.41091675 107.47556876 80.28780616 99.51147246 83.3125 91.5625 C86.26049184 83.80456323 89.01829751 76.02387744 91.5625 68.125 C97.06188545 51.1619833 103.67529236 34.58244951 110.09057617 17.95043945 C112.3978393 11.96854783 114.6984292 5.98408408 117 0 C127.23 0 137.46 0 148 0 C146.87676158 7.86266897 146.87676158 7.86266897 145.6171875 10.8828125 C145.34132813 11.5624707 145.06546875 12.24212891 144.78125 12.94238281 C144.4821875 13.66264648 144.183125 14.38291016 143.875 15.125 C141.33247259 21.43739276 139.06050863 27.76580422 137 34.25 C133.72231472 44.40053306 129.81790655 54.2821824 125.875 64.1875 C125.55060944 65.00269104 125.22621887 65.81788208 124.89199829 66.65777588 C124.23195756 68.3160597 123.57186727 69.9743238 122.91172791 71.63256836 C122.41981712 72.86825562 122.41981712 72.86825562 121.91796875 74.12890625 C121.42454735 75.36797729 121.42454735 75.36797729 120.92115784 76.63208008 C117.61720404 84.94031623 114.38282541 93.27443446 111.1875 101.625 C110.91829742 102.32798218 110.64909485 103.03096436 110.37173462 103.75524902 C106.79820163 113.10317293 103.37776837 122.49435868 100.0625 131.9375 C96.48804526 142.0838853 92.69324698 152.12763042 88.72824097 162.12722778 C88.12908609 163.63880248 87.53240688 165.15136141 86.93850708 166.66500854 C81.40086364 180.74858119 75.36548696 193.71470873 65 205 C64.02160156 206.07894531 64.02160156 206.07894531 63.0234375 207.1796875 C49.41389909 220.68413295 30.54771947 224.24517963 12.1875 224.1875 C8.165625 224.125625 4.14375 224.06375 0 224 C0 214.76 0 205.52 0 196 C2.536875 195.896875 5.07375 195.79375 7.6875 195.6875 C22.07566193 194.91218938 35.89831894 192.07533706 46 181 C50.94586512 174.20703046 57.20879512 164.5052312 56.8828125 155.91015625 C55.82475701 150.32904608 53.80399681 144.97441754 51.9375 139.625 C51.72402924 139.00896912 51.51055847 138.39293823 51.2906189 137.75823975 C45.69621033 121.65589321 39.38554977 105.82666956 33.13494873 89.97093201 C29.36100812 80.3924576 25.63826918 70.79445894 21.9375 61.1875 C21.61978638 60.36327545 21.30207275 59.5390509 20.97473145 58.68984985 C17.25752098 49.03495544 13.62101488 39.36808859 10.30224609 29.56738281 C7.96698714 22.72037274 5.26628324 16.03052319 2.48657227 9.3527832 C2.16229248 8.56476318 1.8380127 7.77674316 1.50390625 6.96484375 C1.06800171 5.92251587 1.06800171 5.92251587 0.62329102 4.85913086 C0 3 0 3 0 0 Z " fill="#000000" transform="translate(1217,205)"/>
<path d="M0 0 C10.80233732 8.57124536 18.60914167 19.12798417 20.43359375 33.08984375 C21.00149113 38.537452 21.00149113 38.537452 21.0625 41.25 C20.0625 42.25 20.0625 42.25 17.28686523 42.36352539 C16.07716064 42.35828857 14.86745605 42.35305176 13.62109375 42.34765625 C12.31591797 42.34443359 11.01074219 42.34121094 9.66601562 42.33789062 C8.2773431 42.32953401 6.88867123 42.32106905 5.5 42.3125 C4.10742344 42.30748666 2.71484519 42.30292347 1.32226562 42.29882812 C-2.0976987 42.28699434 -5.51757844 42.2705088 -8.9375 42.25 C-9.11925781 41.44175781 -9.30101562 40.63351563 -9.48828125 39.80078125 C-9.73964844 38.73214844 -9.99101563 37.66351563 -10.25 36.5625 C-10.49363281 35.50675781 -10.73726562 34.45101562 -10.98828125 33.36328125 C-11.93113297 30.27088282 -13.23350713 27.97543397 -14.9375 25.25 C-14.9375 24.59 -14.9375 23.93 -14.9375 23.25 C-25.19893084 18.76062401 -35.10377435 17.69696934 -45.8046875 21.26953125 C-49.72994789 23.07400077 -51.26018984 25.78454711 -53.01171875 29.57421875 C-54.00119311 32.43409191 -54.23715697 34.66938851 -54.25 37.6875 C-54.26675781 38.59371094 -54.28351563 39.49992187 -54.30078125 40.43359375 C-53.73639395 44.8091125 -52.36645937 48.09205017 -48.8984375 50.90234375 C-40.63343396 55.00987572 -32.05693476 57.31471015 -23.16943359 59.71020508 C-6.46242713 64.21921963 11.8335564 70.05903875 21.125 85.9375 C26.74223286 96.55227099 25.63529638 114.16990937 22.5625 125.5 C18.17983457 137.21255883 8.9864511 145.41488574 -2.109375 150.78515625 C-19.77752638 158.03417051 -41.02301831 158.8706422 -58.875 151.4375 C-71.99464422 144.84019319 -81.88675493 135.55735645 -86.75 121.4375 C-87.16267219 120.04655198 -87.56121771 118.6512303 -87.9375 117.25 C-88.2778125 116.0125 -88.2778125 116.0125 -88.625 114.75 C-89.100642 110.94486402 -88.9375 107.08474838 -88.9375 103.25 C-79.0375 103.25 -69.1375 103.25 -58.9375 103.25 C-58.2775 106.88 -57.6175 110.51 -56.9375 114.25 C-54.00297052 120.56368463 -51.58731903 123.05951535 -45.12109375 125.55859375 C-44.40050781 125.78675781 -43.67992187 126.01492188 -42.9375 126.25 C-42.35355469 126.44078125 -41.76960938 126.6315625 -41.16796875 126.828125 C-31.78032357 128.60372164 -20.12074935 128.60749658 -11.9375 123.25 C-8.5746863 120.17721919 -6.08826499 117.03940746 -5.69921875 112.421875 C-5.5063501 105.3104723 -5.5063501 105.3104723 -7.625 98.625 C-15.53530412 90.50090388 -27.81432608 87.91068758 -38.4375 85.25 C-53.59302233 81.42753059 -69.08021686 76.26763346 -78.9375 63.25 C-85.64485178 51.00254986 -87.15629035 37.75908891 -83.3125 24.25 C-81.31867384 18.60669698 -78.59405324 13.96225102 -74.9375 9.25 C-74.195 8.21875 -73.4525 7.1875 -72.6875 6.125 C-54.49080997 -12.8988123 -21.33217658 -14.55128007 0 0 Z " fill="#000000" transform="translate(1182.9375,210.75)"/>
<path d="M0 0 C0.54785156 1.00933594 1.09570312 2.01867187 1.66015625 3.05859375 C7.44055008 13.62031635 13.5190312 23.97018037 19.82055664 34.23022461 C28.88740898 49.12891447 32.47534081 62.13212678 29.3515625 79.6328125 C25.58057874 91.97714395 16.99519476 102.41307622 5.8203125 108.82421875 C-3.53890796 113.37169881 -12.58720728 115.77131798 -23 115 C-24.21042969 114.91492188 -24.21042969 114.91492188 -25.4453125 114.828125 C-31.50094416 114.06891148 -36.72114868 112.03828697 -42.1875 109.4375 C-42.84049072 109.13972656 -43.49348145 108.84195313 -44.16625977 108.53515625 C-54.1087247 103.52824957 -59.56261593 94.00349795 -64.875 84.625 C-65.99695276 82.67943192 -67.11932938 80.7341082 -68.2421875 78.7890625 C-68.7254248 77.94037598 -69.20866211 77.09168945 -69.70654297 76.21728516 C-70.74283513 74.44084019 -71.85919621 72.71120568 -73 71 C-77.40956567 72.58508288 -81.31220794 74.84743795 -85.3125 77.25 C-86.81345153 78.14251687 -88.3147769 79.03440525 -89.81640625 79.92578125 C-91.04447998 80.65595459 -91.04447998 80.65595459 -92.29736328 81.40087891 C-97.43279771 84.43946025 -102.59316737 87.43542957 -107.75 90.4375 C-109.78663928 91.62338721 -111.82310777 92.80956781 -113.859375 93.99609375 C-114.73045898 94.50325928 -115.60154297 95.0104248 -116.49902344 95.53295898 C-119.05730727 96.98684912 -119.05730727 96.98684912 -121.57128906 98.81274414 C-124 100 -124 100 -126.1628418 99.42333984 C-129.46386236 96.86587142 -130.92839066 93.27792697 -132.8125 89.625 C-133.44188477 88.47257812 -133.44188477 88.47257812 -134.08398438 87.296875 C-134.47521484 86.55179687 -134.86644531 85.80671875 -135.26953125 85.0390625 C-135.62635986 84.36053223 -135.98318848 83.68200195 -136.35083008 82.98291016 C-137.15009351 80.54153461 -136.97512707 79.35988808 -136 77 C-133.4375 75.2109375 -133.4375 75.2109375 -130 73.375 C-128.72309135 72.67997589 -127.44708955 71.9832838 -126.171875 71.28515625 C-125.49447266 70.91793457 -124.81707031 70.55071289 -124.11914062 70.17236328 C-120.44480577 68.13962642 -116.85474349 65.96539976 -113.25 63.8125 C-108.81464927 61.180793 -104.39908834 58.61652473 -99.75 56.375 C-95.02298083 54.08975232 -90.65876492 51.35026023 -86.2109375 48.56640625 C-79.46408215 44.40465102 -72.54623743 40.52561213 -65.67138672 36.58081055 C-59.61312529 33.09968798 -53.58830972 29.57867852 -47.625 25.9375 C-43.52625904 23.4381437 -39.38955455 21.148244 -35.0625 19.0625 C-27.98736819 15.63473708 -21.45928097 11.38512272 -14.83740234 7.16894531 C-12.29800427 5.55339416 -9.75000972 3.95365562 -7.1875 2.375 C-6.43855469 1.90835938 -5.68960938 1.44171875 -4.91796875 0.9609375 C-3 0 -3 0 0 0 Z M-14.52099609 35.13647461 C-15.51180176 35.71921143 -16.50260742 36.30194824 -17.5234375 36.90234375 C-18.62187988 37.54228271 -19.72032227 38.18222168 -20.85205078 38.84155273 C-22.02655986 39.53987788 -23.20087318 40.23853235 -24.375 40.9375 C-25.56059587 41.63364256 -26.74663109 42.32903743 -27.93310547 43.02368164 C-35.68654778 47.575261 -43.40502574 52.18779971 -51 57 C-48.99023201 62.20652464 -46.45441635 67.02904108 -43.8125 71.9375 C-43.12704102 73.25911133 -43.12704102 73.25911133 -42.42773438 74.60742188 C-38.71674914 81.4786636 -34.29590548 87.51877484 -26.5 89.875 C-19.6500586 91.80733144 -14.5714688 91.35871393 -8.20703125 88.2578125 C-1.72225294 84.56206274 2.5810912 80.13904975 5 73 C7.25273108 64.26872505 4.4987727 57.41563331 0.1875 49.78125 C-0.86578066 48.01530183 -1.92842089 46.25490492 -3 44.5 C-3.53367187 43.59507812 -4.06734375 42.69015625 -4.6171875 41.7578125 C-5.39449219 40.47003906 -5.39449219 40.47003906 -6.1875 39.15625 C-6.65542969 38.38087891 -7.12335938 37.60550781 -7.60546875 36.80664062 C-9.80937348 33.95144192 -11.2720259 33.67182651 -14.52099609 35.13647461 Z " fill="#000000" transform="translate(348,238)"/>
<path d="M0 0 C0 9.24 0 18.48 0 28 C-2.8875 28.391875 -5.775 28.78375 -8.75 29.1875 C-22.10174261 31.21814866 -32.93764231 35.04372683 -41.55859375 45.9765625 C-47.52710654 54.86734417 -49.1344438 64.61676949 -49.20532227 75.10473633 C-49.22017166 76.46645462 -49.22017166 76.46645462 -49.23532104 77.85568237 C-49.26683635 80.84777239 -49.29165401 83.83987828 -49.31640625 86.83203125 C-49.33698439 88.90997219 -49.35798108 90.98790902 -49.37937927 93.06584167 C-49.43451114 98.52872386 -49.48395956 103.99164327 -49.53222656 109.45458984 C-49.58250651 115.03160913 -49.63815866 120.60857451 -49.69335938 126.18554688 C-49.80083228 137.12365354 -49.90180474 148.06180611 -50 159 C-59.57 159 -69.14 159 -79 159 C-79 106.86 -79 54.72 -79 1 C-70.42 1 -61.84 1 -53 1 C-52.34 8.26 -51.68 15.52 -51 23 C-49.68 21.47375 -48.36 19.9475 -47 18.375 C-33.81367806 3.83518311 -19.38314224 0 0 0 Z " fill="#000000" transform="translate(935,204)"/>
<path d="M0 0 C3.94865906 2.97448331 7.68218688 6.12018922 10.3125 10.3515625 C10.3125 11.6715625 10.3125 12.9915625 10.3125 14.3515625 C7.21366855 16.02829387 4.10761545 17.6911759 1 19.3515625 C0.11892578 19.82851563 -0.76214844 20.30546875 -1.66992188 20.796875 C-2.94125977 21.47363281 -2.94125977 21.47363281 -4.23828125 22.1640625 C-5.01856689 22.58300781 -5.79885254 23.00195312 -6.6027832 23.43359375 C-8.6875 24.3515625 -8.6875 24.3515625 -11.6875 24.3515625 C-12.22375 23.6915625 -12.76 23.0315625 -13.3125 22.3515625 C-16.43888193 19.71881982 -18.5666261 19.71441699 -22.5625 19.8984375 C-24.95645006 20.2285615 -24.95645006 20.2285615 -27.1875 22.5390625 C-29.88272688 27.5926129 -29.68876633 30.79491656 -28.6875 36.3515625 C-31.78549973 38.19547197 -34.89185001 40.02482309 -38 41.8515625 C-38.88107422 42.37621094 -39.76214844 42.90085937 -40.66992188 43.44140625 C-41.51748047 43.93769531 -42.36503906 44.43398438 -43.23828125 44.9453125 C-44.40870972 45.63657227 -44.40870972 45.63657227 -45.6027832 46.34179688 C-47.6875 47.3515625 -47.6875 47.3515625 -50.6875 47.3515625 C-55.58264176 38.26058495 -56.13461897 28.46257094 -54.09765625 18.453125 C-50.90025812 9.11141801 -44.04038055 2.22226696 -35.375 -2.2109375 C-23.63760438 -7.62701678 -11.18760763 -6.86216631 0 0 Z " fill="#000000" transform="translate(247.6875,249.6484375)"/>
<path d="M0 0 C5.36737654 3.36449298 8.39722889 6.47431561 9.90625 12.78125 C11.0119153 19.08718726 9.88250732 23.80078804 6.19921875 29.12109375 C1.89818824 33.42212426 -1.51259737 35.02882776 -7.55078125 35.24609375 C-12.80885442 35.04930957 -16.42195537 34.03498264 -20.2109375 30.18359375 C-24.91421542 24.84654079 -25.86042074 21.77959303 -25.7578125 14.625 C-25.34301537 9.10741551 -23.03286625 6.12815832 -19.05078125 2.55859375 C-13.62866133 -1.97173013 -6.50277065 -2.87794903 0 0 Z " fill="#000000" transform="translate(304.55078125,203.12890625)"/>
</svg>