<?xml version="1.0" encoding="UTF-8"?>
<svg version="1.1" xmlns="http://www.w3.org/2000/svg" width="2110" height="2048">
<path d="M0 0 C696.3 0 1392.6 0 2110 0 C2110 675.18 2110 1350.36 2110 2046 C1413.7 2046 717.4 2046 0 2046 C0 1370.82 0 695.64 0 0 Z " fill="#FEFEFE" transform="translate(0,0)"/>
<path d="M0 0 C696.3 0 1392.6 0 2110 0 C2110 675.18 2110 1350.36 2110 2046 C1413.7 2046 717.4 2046 0 2046 C0 1370.82 0 695.64 0 0 Z M206.39501953 142.47265625 C188.76483463 161.7751478 182.93632787 185.44698296 184 211 C184.66046639 220.7360357 185.68239198 230.44501708 186.66234946 240.15316749 C187.04524821 243.96484773 187.41819682 247.7775036 187.79243469 251.59004211 C188.42476967 258.01804966 189.06347635 264.44539646 189.70678711 270.87231445 C190.59621674 279.75819155 191.47383402 288.64520455 192.3491056 297.53248572 C195.13010913 325.75387343 197.96077772 353.96810786 201.01340103 382.16160965 C202.55193417 396.40113551 203.91375881 410.64988239 205.1805687 424.91596603 C206.6083213 440.97434363 208.16577314 457.01765203 209.77734375 473.05859375 C209.90152805 474.29514835 210.02571236 475.53170296 210.15365982 476.80572891 C210.80549368 483.29168579 211.4589328 489.77747998 212.11328125 496.26318359 C213.48468941 509.8567177 214.84798953 523.4510669 216.20999384 537.04554605 C216.3592441 538.53524422 216.5085142 540.0249404 216.65780401 541.51463461 C218.89519375 563.84164866 221.10595847 586.17113702 223.28515625 608.50390625 C223.35166846 609.1855178 223.41818067 609.86712934 223.4867084 610.56939578 C224.42536569 620.190113 225.36216983 629.81101049 226.29868174 639.43193674 C227.44776404 651.23600686 228.5978167 663.03998213 229.75 674.84375 C229.81706878 675.5308654 229.88413756 676.21798079 229.95323873 676.92591786 C233.0802981 708.95614932 236.28550071 740.97844536 239.5 773 C242.77238654 805.59825143 246.03302568 838.19745203 249.21484375 870.8046875 C249.28120301 871.48473028 249.34756227 872.16477306 249.41593242 872.8654232 C250.42443043 883.20182133 251.43106501 893.53840084 252.4375 903.875 C256.99419008 950.67359075 261.62339267 997.46448927 266.3125 1044.25 C266.46357492 1045.75743737 266.61464965 1047.26487476 266.76572418 1048.77231216 C267.43325655 1055.43284719 268.10088667 1062.09337242 268.76853144 1068.75389618 C268.91302775 1070.19541439 269.05752269 1071.63693273 269.20201623 1073.07845122 C269.55694972 1076.61938197 269.91190452 1080.16031058 270.26690292 1083.70123482 C272.63468733 1107.3197626 274.98500871 1130.93996712 277.3125 1154.5625 C277.42908777 1155.74577251 277.42908777 1155.74577251 277.54803085 1156.95294952 C278.23956394 1163.97223788 278.93072795 1170.99156256 279.62150574 1178.01092529 C280.65394263 1188.49988088 281.69135304 1198.98833725 282.73145103 1209.4765358 C286.18014286 1244.25307113 289.61596611 1279.03081111 293.01326776 1313.81240797 C293.29907845 1316.73850324 293.58493218 1319.66459431 293.87078482 1322.59068549 C294.08826957 1324.81693973 294.30574961 1327.04319443 294.52322865 1329.26944923 C295.19035309 1336.0985258 295.85749031 1342.92760112 296.52471304 1349.75666809 C296.67499475 1351.29481468 296.82527252 1352.83296165 296.97554636 1354.37110901 C301.51136728 1400.79711429 306.10469022 1447.21695063 310.76384163 1493.63073587 C313.95857202 1525.45625709 317.13872467 1557.28300057 320.24609375 1589.1171875 C320.31328393 1589.80552107 320.38047411 1590.49385464 320.44970036 1591.2030468 C321.60206757 1603.01010725 322.75212793 1614.8173924 323.90154266 1626.6247406 C324.83574516 1636.22127495 325.77057812 1645.81774748 326.70703125 1655.4140625 C326.77336856 1656.09386736 326.83970587 1656.77367222 326.9080534 1657.47407722 C329.12030821 1680.13943974 331.36814458 1702.80114581 333.63671875 1725.4609375 C333.71179547 1726.21096259 333.78687219 1726.96098768 333.86422396 1727.73374081 C335.32117588 1742.28799913 336.78084378 1756.84198356 338.24650067 1771.39536798 C338.84684958 1777.35679992 339.44589525 1783.31836215 340.04462624 1789.27995682 C340.40296877 1792.84303927 340.76303921 1796.40594401 341.12321472 1799.96884155 C341.34445255 1802.16783219 341.56535318 1804.36685678 341.78588867 1806.56591797 C341.89081981 1807.61088629 341.99575094 1808.65585461 342.10386181 1809.73248863 C342.62240177 1814.96092618 343.10882496 1820.19008201 343.54483032 1825.42608643 C343.63147351 1826.46438158 343.7181167 1827.50267673 343.80738544 1828.57243538 C343.96705953 1830.51643174 344.12235866 1832.46079514 344.27216625 1834.40557671 C346.17422839 1857.73834728 356.24211948 1881.30257584 374 1897 C388.1689982 1907.96151938 401.31957637 1911.31047977 418.84387207 1911.24050903 C420.46769894 1911.24138176 422.09152553 1911.24313399 423.71535063 1911.24568737 C428.16672902 1911.25015163 432.61801085 1911.24216987 437.06937695 1911.23213124 C441.87364379 1911.22348578 446.6779053 1911.22641768 451.48217773 1911.22793579 C459.80234566 1911.22898395 468.12248219 1911.22271458 476.44264221 1911.21146011 C488.47215925 1911.1951987 500.50166112 1911.18999645 512.53118795 1911.18748413 C532.04879536 1911.18310804 551.56638605 1911.16980125 571.08398438 1911.15087891 C590.04231686 1911.1325179 609.00064479 1911.11836247 627.95898438 1911.10986328 C629.12778485 1911.10933783 630.29658533 1911.10881239 631.50080401 1911.10827102 C637.36439483 1911.10566092 643.22798569 1911.10313351 649.09157658 1911.10064721 C697.72773258 1911.07991738 746.36385763 1911.04304904 795 1911 C795 1938.06 795 1965.12 795 1993 C961.98 1993 1128.96 1993 1301 1993 C1301 1965.94 1301 1938.88 1301 1911 C1312.40248291 1911.02618408 1323.80496582 1911.05236816 1335.55297852 1911.0793457 C1372.06233058 1911.15964415 1408.57168302 1911.21523313 1445.0811005 1911.25532665 C1450.7548322 1911.26157997 1456.42856362 1911.2680516 1462.10229492 1911.2746582 C1463.23180326 1911.27596976 1464.36131161 1911.27728131 1465.52504747 1911.2786326 C1483.79905942 1911.30037213 1502.07299249 1911.33978566 1520.34695769 1911.38576398 C1539.10636106 1911.43256903 1557.8657232 1911.46030396 1576.62518257 1911.47044247 C1588.19502728 1911.47729322 1599.76464902 1911.49890825 1611.33442508 1911.53958233 C1619.27491808 1911.56607066 1627.21529628 1911.57398721 1635.15583021 1911.56750689 C1639.73291856 1911.56431348 1644.30961804 1911.56910917 1648.88663673 1911.59602737 C1653.0862364 1911.62054415 1657.28518953 1911.6214697 1661.48482036 1911.60449447 C1662.99518459 1911.60239972 1664.50559089 1911.60858574 1666.01587362 1911.62441591 C1684.38141893 1911.80554878 1699.2720823 1905.89332585 1712.69140625 1893.26953125 C1713.45324219 1892.52058594 1714.21507812 1891.77164062 1715 1891 C1715.62777344 1890.38511719 1716.25554687 1889.77023437 1716.90234375 1889.13671875 C1725.65273743 1879.87042885 1730.91499978 1867.90666729 1735 1856 C1735.49886719 1854.63875 1735.49886719 1854.63875 1736.0078125 1853.25 C1738.54650838 1844.93427175 1739.38818924 1836.63126704 1739.92041016 1827.984375 C1740.62498342 1817.6445534 1741.48751771 1807.32885637 1742.50537109 1797.015625 C1742.57406304 1796.31832169 1742.64275499 1795.62101838 1742.71352851 1794.90258467 C1743.1517136 1790.46412394 1743.59507584 1786.0261905 1744.03964972 1781.58836579 C1744.44299684 1777.5540526 1744.84227499 1773.51933637 1745.24201965 1769.48466492 C1745.92669917 1762.57896144 1746.61360093 1755.67348228 1747.30209351 1748.76815796 C1748.39168852 1737.8390494 1749.47628199 1726.90944741 1750.55981445 1715.97973633 C1750.65056295 1715.06440758 1750.74131145 1714.14907883 1750.8348099 1713.20601285 C1751.20179393 1709.50442899 1751.56876835 1705.80284418 1751.93569142 1702.10125428 C1752.48705426 1696.53916096 1753.0387477 1690.97710055 1753.59070617 1685.4150663 C1756.70144107 1654.06748388 1759.77827124 1622.71673053 1762.82973099 1591.3633194 C1763.30992262 1586.42969557 1763.79042922 1581.49610244 1764.27091885 1576.56250763 C1765.11340301 1567.91195168 1765.95574968 1559.26138237 1766.79774475 1550.61077881 C1769.4647679 1523.21244547 1772.14331633 1495.81523992 1774.8221845 1468.41806275 C1775.50494105 1461.43538175 1776.18758292 1454.45268954 1776.87021458 1447.46999633 C1777.7590352 1438.37819233 1778.64787925 1429.28639063 1779.53678894 1420.19459534 C1781.44277725 1400.70007034 1783.34846141 1381.20551563 1785.25390625 1361.7109375 C1785.35436662 1360.68313069 1785.35436662 1360.68313069 1785.45685649 1359.63456011 C1786.06552657 1353.40727367 1786.67419325 1347.17998691 1787.28285503 1340.95269966 C1788.23013768 1331.26094519 1789.17743942 1321.56919258 1790.12475586 1311.87744141 C1790.22531365 1310.84866037 1790.22531365 1310.84866037 1790.32790291 1309.79909587 C1790.66649736 1306.3350237 1791.00509214 1302.87095155 1791.34368706 1299.40687943 C1791.9530862 1293.17228168 1792.56248245 1286.93768366 1793.17187893 1280.70308566 C1793.51041917 1277.2395571 1793.8489596 1273.77602855 1794.1875 1270.3125 C1794.32291667 1268.92708333 1794.45833333 1267.54166667 1794.59375 1266.15625 C1808.40624341 1124.84381743 1808.40624341 1124.84381743 1808.60937506 1122.7656244 C1808.74479153 1121.38020972 1808.880208 1119.99479504 1809.01562446 1118.60938036 C1809.35416909 1115.14580829 1809.69271377 1111.68223622 1810.03125858 1108.21866417 C1810.64059835 1101.98465227 1811.24993768 1095.75064032 1811.85927469 1089.51662815 C1812.1977681 1086.05356587 1812.53626188 1082.59050363 1812.87475586 1079.12744141 C1812.94177952 1078.44173608 1813.00880317 1077.75603076 1813.07785785 1077.04954648 C1814.02648128 1067.34438173 1814.97512521 1057.63921899 1815.92378175 1047.93405747 C1816.53382783 1041.69301793 1817.14386793 1035.4519778 1817.75390625 1029.2109375 C1817.85454718 1028.18132503 1817.85454718 1028.18132503 1817.95722127 1027.1309123 C1819.84260343 1007.84238363 1821.72770086 988.55382714 1823.61253798 969.2652452 C1824.88744048 956.21848851 1826.16243781 943.17174109 1827.4375 930.125 C1827.53739542 929.10284267 1827.53739542 929.10284267 1827.63930893 928.06003571 C1831.6467072 887.05541387 1835.65828222 846.05120239 1839.67344761 805.04734039 C1840.706962 794.49283337 1841.74036648 783.93831559 1842.77368164 773.38378906 C1842.84670639 772.63789929 1842.91973115 771.89200953 1842.99496877 771.12351704 C1843.80267324 762.8734439 1844.6103535 754.6233684 1845.41801453 746.37329102 C1845.70868853 743.40413403 1845.9993637 740.43497716 1846.29003906 737.46582031 C1846.36159261 736.73491904 1846.43314616 736.00401777 1846.506868 735.25096798 C1847.4121876 726.00340544 1848.31767299 716.75585915 1849.22333717 707.50833035 C1850.87541147 690.63937401 1852.52668905 673.77033986 1854.17679882 656.90119123 C1854.37511096 654.87386569 1854.57343839 652.84654165 1854.77176666 650.81921768 C1858.06254292 617.17927848 1861.3390123 583.53797938 1864.59568119 549.89472032 C1864.84419516 547.32743253 1865.09273003 544.76014678 1865.34127045 542.19286156 C1866.18082531 533.52063995 1867.02029023 524.84840964 1867.85974121 516.17617798 C1867.94352091 515.3106741 1868.02730061 514.44517023 1868.11361909 513.55343896 C1868.53595937 509.19031238 1868.95826577 504.82718251 1869.38050842 500.46404648 C1873.26790715 460.2957131 1877.17285649 420.12923325 1881.140625 379.96875 C1881.22515442 379.11303602 1881.30968385 378.25732205 1881.39677477 377.37567735 C1882.94533697 361.69962409 1884.49525763 346.02370511 1886.05218506 330.34848022 C1887.97863287 310.9528874 1889.89653253 291.55650156 1891.7894001 272.15759945 C1892.00473357 269.95150452 1892.22036508 267.74543884 1892.4360199 265.53937531 C1893.30836948 256.60981359 1894.17180685 247.67944684 1895.02459335 238.74799538 C1895.2900974 235.96960629 1895.55857577 233.19153172 1895.82986832 230.41370201 C1896.20272226 226.58212871 1896.56702827 222.74983222 1896.92919922 218.91723633 C1897.038587 217.81108538 1897.14797478 216.70493443 1897.26067734 215.56526375 C1898.25523223 204.84994022 1899.09952867 193.87311316 1896.3125 183.375 C1896.13243408 182.66190674 1895.95236816 181.94881348 1895.7668457 181.21411133 C1891.37541198 164.53191564 1883.08670475 151.08670475 1871 139 C1869.75863281 137.75863281 1869.75863281 137.75863281 1868.4921875 136.4921875 C1856.40541537 125.02724287 1838.33285001 115.87694032 1821.26051205 115.8743835 C1820.32779722 115.87181939 1819.39508238 115.86925529 1818.43410345 115.86661348 C1816.90564883 115.87002239 1816.90564883 115.87002239 1815.34631634 115.87350017 C1814.25337329 115.87197362 1813.16043025 115.87044707 1812.03436772 115.86887427 C1808.33911651 115.86494966 1804.64390563 115.86820025 1800.94865417 115.87136555 C1798.27435389 115.87002004 1795.60005653 115.86827807 1792.92575711 115.86605331 C1787.07590127 115.86199397 1781.22605432 115.86167617 1775.37619758 115.86375926 C1766.61861214 115.86686068 1757.86103488 115.86422579 1749.10345004 115.86046055 C1734.1795192 115.85421651 1719.25559126 115.85275596 1704.33165932 115.85387802 C1689.2015098 115.85500127 1674.07136275 115.85397257 1658.94121361 115.85030556 C1657.9865991 115.8500759 1657.03198459 115.84984625 1656.04844236 115.84960964 C1652.16061448 115.84866803 1648.27278659 115.84771235 1644.38495872 115.84673845 C1603.79414006 115.83658534 1563.20332278 115.83353213 1522.61250299 115.83294634 C1518.24108628 115.83288159 1513.86966958 115.83281365 1509.49825287 115.83274293 C1508.4135142 115.83272592 1507.32877553 115.83270892 1506.21116599 115.8326914 C1482.18903031 115.8322832 1458.1668949 115.83009409 1434.14475936 115.82758708 C1424.25771662 115.82655875 1414.37067388 115.82556872 1404.48363113 115.82457083 C1403.39124014 115.82446025 1402.29884914 115.82434966 1401.17335538 115.82423572 C1338.5584414 115.81791002 1275.9435276 115.81378677 1213.32861328 115.81424427 C1210.98448792 115.81426005 1208.64036256 115.81427578 1206.2962372 115.81429148 C1195.71236625 115.81436486 1185.12849529 115.81445303 1174.54462434 115.81454536 C1169.82487167 115.81458649 1165.10511901 115.81462663 1160.38536634 115.81466668 C1158.02304241 115.81468707 1155.66071847 115.81470809 1153.29839454 115.81472974 C1078.59915553 115.81540998 1003.89992127 115.80809333 929.20068359 115.79418945 C910.38143414 115.79068852 891.56218468 115.78721909 872.74293518 115.78392506 C871.58420631 115.78372218 870.42547743 115.78351931 869.23163556 115.78331029 C833.52555311 115.77709649 797.81947104 115.77332995 762.11338806 115.77206707 C760.99255158 115.77202712 759.8717151 115.77198717 758.71691388 115.77194601 C734.11317781 115.77109278 709.50944177 115.77083152 684.90570569 115.77111638 C676.10221762 115.77121287 667.29872955 115.77126491 658.49524149 115.77129511 C656.30509648 115.77130303 654.11495146 115.77131323 651.92480645 115.77132574 C617.00832106 115.77150215 582.09183971 115.76580026 547.17535548 115.75717192 C512.01109647 115.74852653 476.84684307 115.7463268 441.68258344 115.75293324 C436.82505393 115.75384556 431.96752442 115.75468883 427.10999489 115.75549126 C426.1577713 115.75565134 425.20554771 115.75581143 424.22446886 115.75597637 C409.13740783 115.75833081 394.0503565 115.75396848 378.96329729 115.74682007 C364.13351239 115.73993376 349.30374184 115.74016809 334.47395725 115.74801221 C325.77642488 115.75239905 317.07893474 115.751309 308.38140585 115.74214542 C302.60536403 115.736606 296.82935374 115.73831778 291.05331435 115.7459282 C287.77882474 115.75003976 284.50443443 115.74996365 281.22994687 115.74317751 C251.68780531 115.68604238 227.59648928 120.50644782 206.39501953 142.47265625 Z " fill="#008061" transform="translate(0,0)"/>
<path d="M0 0 C0 142.23 0 284.46 0 431 C-9.9 434.465 -9.9 434.465 -20 438 C-23.47491576 439.42904733 -26.86003711 440.84734722 -30.25 442.4375 C-31.07097168 442.81527588 -31.89194336 443.19305176 -32.73779297 443.58227539 C-35.1655788 444.70726082 -37.58457926 445.8487342 -40 447 C-40.70608398 447.33644531 -41.41216797 447.67289063 -42.13964844 448.01953125 C-78.85492378 465.66536009 -111.73655317 489.04971926 -143 515 C-143.58845703 515.48791016 -144.17691406 515.97582031 -144.78320312 516.47851562 C-159.27881769 528.55547071 -172.77149179 541.68755571 -186.125 555 C-186.61636444 555.48868561 -187.10772888 555.97737122 -187.61398315 556.48086548 C-193.30153862 562.14481865 -198.79961962 567.88636635 -204 574 C-205.06886739 575.22652128 -206.13917129 576.45179223 -207.2109375 577.67578125 C-213.60397557 585.01438777 -219.93208332 592.38823335 -226 600 C-226.50611816 600.63212402 -227.01223633 601.26424805 -227.53369141 601.91552734 C-236.03451806 612.5645057 -243.97171343 623.4893696 -251.53759766 634.8203125 C-252.85728919 636.7872918 -254.19491875 638.73990142 -255.54296875 640.6875 C-263.35801948 652.05585284 -270.18460169 664.01429952 -277 676 C-277.40492676 676.70624512 -277.80985352 677.41249023 -278.22705078 678.14013672 C-293.28537521 704.55300757 -305.09389968 734.5164863 -309.04931641 764.77124023 C-309.1870623 765.81501453 -309.1870623 765.81501453 -309.32759094 766.87987518 C-309.55267021 768.58645936 -309.77646394 770.293213 -310 772 C-348.69764708 772.0303777 -387.39529551 772.05067652 -426.09295255 772.06185675 C-428.30551184 772.06249797 -430.51807112 772.06315684 -432.7306304 772.06381607 C-510.00923604 772.08647433 -587.28531711 772.03576752 -664.5625 771.5 C-665.42718792 771.49402628 -666.29187585 771.48805257 -667.18276644 771.48189783 C-688.12197301 771.33694574 -709.06105426 771.17891464 -730 771 C-729.52041973 768.27017828 -729.04027832 765.54045724 -728.55981445 762.81079102 C-728.42474739 762.04163612 -728.28968033 761.27248123 -728.15052032 760.48001862 C-712.81324721 673.40045001 -677.30692516 588.60944302 -632 513 C-631.44376953 512.06269043 -630.88753906 511.12538086 -630.31445312 510.15966797 C-607.33049437 471.4396091 -581.00546342 434.65246558 -552.49267578 399.82470703 C-551.17813798 398.21776304 -549.86801698 396.60720809 -548.55859375 394.99609375 C-540.60509746 385.22140331 -532.51370886 375.5820064 -524.0390625 366.25390625 C-522.20913753 364.2311731 -520.41118272 362.18630565 -518.625 360.125 C-514.84383025 355.78752021 -510.95556717 351.55030216 -507.05419922 347.32128906 C-505.19916314 345.30812489 -503.35523974 343.28683589 -501.51928711 341.25610352 C-492.78502556 331.65322337 -483.63274759 322.48055528 -474.44433594 313.31396484 C-471.73776675 310.61279114 -469.03663104 307.90626571 -466.3359375 305.19921875 C-464.5940708 303.45801235 -462.8518942 301.71711591 -461.109375 299.9765625 C-460.31335876 299.17852203 -459.51734253 298.38048157 -458.69720459 297.55825806 C-454.49286328 293.37132038 -450.20728332 289.3472106 -445.71099854 285.47518921 C-443.75934883 283.79251531 -441.87042828 282.05356429 -440 280.28125 C-439.34 279.65863281 -438.68 279.03601563 -438 278.39453125 C-437.34 277.76933594 -436.68 277.14414062 -436 276.5 C-428.67274148 269.55913988 -421.11199668 262.92726105 -413.4375 256.375 C-409.69291792 253.17633321 -405.95679789 249.96956958 -402.25390625 246.72265625 C-395.76933179 241.04221294 -389.22387015 235.50865767 -382.40576172 230.23193359 C-377.72964133 226.60510173 -373.17308874 222.84811201 -368.625 219.0625 C-361.99369328 213.56269626 -355.21698035 208.319435 -348.29296875 203.1953125 C-344.24819682 200.19953738 -340.25558582 197.13844424 -336.26367188 194.07275391 C-327.74923203 187.53916801 -319.15787378 181.16389612 -310.34790039 175.03491211 C-307.60916153 173.12765184 -304.879385 171.20904528 -302.16113281 169.27270508 C-292.22252509 162.19624301 -282.15175298 155.34025959 -271.98876953 148.59057617 C-269.49984399 146.93739638 -267.01341775 145.28051099 -264.52734375 143.62304688 C-250.94460773 134.57760447 -237.32223628 125.5775666 -223.4375 117 C-222.59509766 116.47929932 -221.75269531 115.95859863 -220.88476562 115.42211914 C-200.50132626 102.88774446 -179.88015621 90.6880282 -159 79 C-157.95972656 78.41750488 -156.91945313 77.83500977 -155.84765625 77.23486328 C-113.08003949 53.34803687 -69.59710227 30.50791468 -24.9453125 10.33154297 C-21.93802119 8.97198007 -18.93740746 7.5984255 -15.9375 6.22265625 C-14.08365722 5.37689388 -12.22950946 4.53179954 -10.375 3.6875 C-9.12855713 3.11733154 -9.12855713 3.11733154 -7.85693359 2.53564453 C-2.23305056 0 -2.23305056 0 0 0 Z " fill="#ED1B2D" transform="translate(1643,333)"/>
<path d="M0 0 C341.22 0 682.44 0 1034 0 C1031.95254545 2.04745455 1030.69266352 2.67382797 1028.0546875 3.7421875 C1027.23758301 4.07959961 1026.42047852 4.41701172 1025.57861328 4.76464844 C1024.6864209 5.13106445 1023.79422852 5.49748047 1022.875 5.875 C1003.39079902 14.07284705 984.90884003 23.99078517 966.60009766 34.51855469 C963.56028083 36.25053671 960.49350849 37.92816815 957.42041016 39.60009766 C948.89173763 44.25263965 940.55589534 49.21322042 932.25 54.25 C931.16887939 54.90452148 930.08775879 55.55904297 928.97387695 56.23339844 C911.23919758 67.04592836 893.8129042 78.35153393 876.4753418 89.78710938 C873.67258258 91.63483434 870.86665095 93.47767241 868.06054688 95.3203125 C857.54641457 102.23975467 847.16122285 109.30552358 836.92393494 116.62840271 C833.48228117 119.08200075 830.02086534 121.50754611 826.5625 123.9375 C806.76042595 137.90172235 787.1433102 152.14360869 768 167 C766.39776113 168.23146468 764.79374816 169.46059417 763.18969727 170.68969727 C750.28787403 180.58335346 737.58868158 190.71123875 725 201 C723.48019531 202.24136719 723.48019531 202.24136719 721.9296875 203.5078125 C720.13822988 204.97262257 718.34781856 206.43871345 716.55859375 207.90625 C714.84661813 209.30719493 713.13042685 210.70300333 711.41015625 212.09375 C704.75697528 217.48663678 698.27495957 223.05663248 691.8203125 228.68359375 C689.39241309 230.79803773 686.95203104 232.89547047 684.4921875 234.97265625 C677.35759702 241.00377151 670.45155842 247.22402837 663.67993164 253.66162109 C660.47574412 256.70404783 657.24058436 259.68334896 653.8984375 262.57421875 C650.44019223 265.5759286 647.1950565 268.72244841 644 272 C640.73733002 275.30759487 637.47650524 278.54671525 633.9375 281.5625 C626.59491491 287.83429143 619.87400126 294.83331281 613.609375 302.171875 C611.97413566 304.02937988 610.26518207 305.76606009 608.5 307.5 C605.46405075 310.48872337 602.65491341 313.61706479 599.875 316.84375 C597.82640906 319.19962958 595.72796998 321.5050746 593.625 323.8125 C588.89789056 329.06484382 584.39103956 334.46485161 580 340 C579.5364209 340.58040039 579.0728418 341.16080078 578.59521484 341.75878906 C571.46882755 350.72341523 564.86144974 359.9771733 558.5 369.5 C557.82960693 370.50248779 557.15921387 371.50497559 556.46850586 372.5378418 C552.68117568 378.26775973 549.35703131 383.95734365 546 390 C365.82 390 185.64 390 0 390 C0 261.3 0 132.6 0 0 Z " fill="#F5821F" transform="translate(466,353)"/>
<path d="M0 0 C145.86 0 291.72 0 442 0 C441.42344448 10.37799928 440.7946925 20.37786456 439.50390625 30.62792969 C438.54618054 38.59950826 438.05893063 46.61769888 437.5 54.625 C437.36992764 56.45744781 437.23971689 58.2898858 437.109375 60.12231445 C436.79067483 64.62135298 436.47766408 69.12076866 436.16601562 73.62030029 C435.93905737 76.87356338 435.70321397 80.1261766 435.46875 83.37890625 C432.78697463 121.63469265 430.91662745 160.0500792 430.29077148 198.39526367 C430.07702614 211.28861833 429.53753211 224.09922938 429 237 C427.52316327 322.65653026 427.43049336 408.33182097 427 494 C278.83 494 130.66 494 -22 494 C-22 332.90261536 -22 332.90261536 -19.34694767 291.91635895 C-18.9527914 285.74148091 -18.81079679 279.57272824 -18.70947266 273.38696289 C-18.02353091 234.64166291 -15.72741629 195.92427146 -13.375 157.25 C-13.31274231 156.22093536 -13.25048462 155.19187073 -13.18634033 154.13162231 C-13.010062 151.23859248 -12.83012376 148.34581976 -12.6484375 145.453125 C-12.59749939 144.62153366 -12.54656128 143.78994232 -12.49407959 142.93315125 C-12.19649525 138.29440822 -11.75680345 133.69348546 -11.22219849 129.0763855 C-10.9142475 126.19866583 -10.76773662 123.3245064 -10.640625 120.43359375 C-9.72885344 101.60274441 -8.30030447 82.84091044 -6.625 64.0625 C-6.5259436 62.9380246 -6.42688721 61.81354919 -6.3248291 60.65499878 C-4.53188919 40.39474084 -2.24695467 20.22259199 0 0 Z " fill="#ED1B2D" transform="translate(849,1470)"/>
<path d="M0 0 C26.73 0 53.46 0 81 0 C86.67575359 29.51391869 86.67575359 29.51391869 88.91061401 42.90661621 C89.63836364 47.2632773 90.37789794 51.6179409 91.1171875 55.97265625 C91.27048019 56.87611786 91.42377289 57.77957947 91.58171082 58.7104187 C93.31540722 68.89942429 95.12221658 79.07526294 96.9375 89.25 C97.10333588 90.17983704 97.26917175 91.10967407 97.44003296 92.06768799 C98.28418056 96.7993507 99.1293658 101.53082726 99.97509766 106.26220703 C101.52781828 114.95110339 103.0724865 123.64143161 104.6171875 132.33175659 C105.11932406 135.15558068 105.62209536 137.97929113 106.125 140.80297852 C107.69754483 149.63708916 109.26061864 158.47268224 110.80078125 167.3125 C111.08117413 168.91773218 111.36160916 170.52295699 111.64208984 172.12817383 C112.1601928 175.09357072 112.67428114 178.05962473 113.18603516 181.02612305 C113.41210449 182.32074463 113.63817383 183.61536621 113.87109375 184.94921875 C114.06630615 186.07674561 114.26151855 187.20427246 114.46264648 188.3659668 C114.87412053 190.964411 114.87412053 190.964411 116 193 C116.22550537 191.70642578 116.45101074 190.41285156 116.68334961 189.08007812 C120.82290164 165.36134065 125.01778527 141.65662787 129.5 118 C132.84258369 100.3548149 136.02591909 82.68642736 139.12081909 64.9961853 C142.91846288 43.29903478 146.93615822 21.6491935 151 0 C173.77 0 196.54 0 220 0 C219.31233117 4.81368181 218.55977637 9.53174955 217.65234375 14.30078125 C217.52030548 14.99706635 217.38826721 15.69335144 217.25222778 16.41073608 C216.81550388 18.71161557 216.3765137 21.0120564 215.9375 23.3125 C215.62478603 24.95741295 215.31220767 26.60235169 214.99975586 28.24731445 C214.16990765 32.61393224 213.33807768 36.98017014 212.5057373 41.34631348 C211.84577151 44.80926216 211.18681145 48.27240182 210.52789307 51.73554993 C207.84712159 65.82482992 205.16501459 79.91385876 202.4697876 94.00038147 C201.624875 98.41676504 200.78093621 102.83333425 199.9375 107.25 C199.77064697 108.12357147 199.60379395 108.99714294 199.43188477 109.89718628 C197.2363904 121.40107172 195.08876861 132.91268672 192.98538208 144.43374634 C190.26538771 159.3319821 187.42280242 174.20269774 184.5 189.0625 C177.76018483 223.3311825 171.3884293 257.66219249 165 292 C125.73 292 86.46 292 46 292 C42.56158088 273.66176471 42.56158088 273.66176471 41.5 266.6875 C41.25006577 265.07681271 41.00006377 263.46613593 40.75 261.85546875 C40.62625 261.05286621 40.5025 260.25026367 40.375 259.42333984 C39.75973577 255.44735499 39.12916523 251.47380434 38.5 247.5 C38.24732897 245.89975014 37.99472467 244.29948974 37.7421875 242.69921875 C37.26892926 239.70171168 36.79497996 236.70431547 36.3203125 233.70703125 C34.58896399 222.76805655 32.8778855 211.82594965 31.16955566 200.88336182 C29.45791434 189.92040403 27.735999 178.95912817 26 168 C24.0405522 155.63026959 22.10136534 143.25743419 20.16955566 130.88336182 C18.45791434 119.92040403 16.735999 108.95912817 15 98 C13.26405977 87.04124282 11.54224412 76.08033253 9.83071899 65.11773682 C9.50022999 63.00147271 9.16947367 60.88525057 8.83862305 58.76904297 C8.62288115 57.38899786 8.40714218 56.00895229 8.19140625 54.62890625 C8.08670517 53.95917786 7.98200409 53.28944946 7.87413025 52.59942627 C7.29747107 48.90915118 6.72353041 45.21846946 6.15234375 41.52734375 C5.91449227 39.99732896 5.67623871 38.4673766 5.4375 36.9375 C5.32623779 36.2244873 5.21497559 35.51147461 5.1003418 34.77685547 C4.42046028 30.48240783 3.68852049 26.1991955 2.9296875 21.91796875 C2.7447876 20.87326416 2.5598877 19.82855957 2.36938477 18.75219727 C2.00692024 16.71677065 1.64042983 14.68205548 1.26928711 12.64819336 C1.02190796 11.26386108 1.02190796 11.26386108 0.76953125 9.8515625 C0.62104736 9.03510254 0.47256348 8.21864258 0.31958008 7.37744141 C0 5 0 5 0 0 Z " fill="#018061" transform="translate(995,1146)"/>
<path d="M0 0 C54.45 0 108.9 0 165 0 C165 21.45 165 42.9 165 65 C141.24 65 117.48 65 93 65 C93 83.15 93 101.3 93 120 C116.76 120 140.52 120 165 120 C165 138.15 165 156.3 165 175 C141.24 175 117.48 175 93 175 C93 192.82 93 210.64 93 229 C116.76 229 140.52 229 165 229 C165 249.79 165 270.58 165 292 C110.55 292 56.1 292 0 292 C0 195.64 0 99.28 0 0 Z " fill="#028162" transform="translate(432,1146)"/>
<path d="M0 0 C54.12 0 108.24 0 164 0 C164 21.45 164 42.9 164 65 C140.57 65 117.14 65 93 65 C93 83.15 93 101.3 93 120 C116.43 120 139.86 120 164 120 C164 138.15 164 156.3 164 175 C140.57 175 117.14 175 93 175 C93 192.82 93 210.64 93 229 C116.43 229 139.86 229 164 229 C164 249.79 164 270.58 164 292 C109.88 292 55.76 292 0 292 C0 195.64 0 99.28 0 0 Z " fill="#018061" transform="translate(814,1146)"/>
<path d="M0 0 C54.12 0 108.24 0 164 0 C164 21.45 164 42.9 164 65 C140.24 65 116.48 65 92 65 C92 83.15 92 101.3 92 120 C115.76 120 139.52 120 164 120 C164 138.15 164 156.3 164 175 C140.24 175 116.48 175 92 175 C92 192.82 92 210.64 92 229 C115.76 229 139.52 229 164 229 C164 249.79 164 270.58 164 292 C109.88 292 55.76 292 0 292 C0 195.64 0 99.28 0 0 Z " fill="#008061" transform="translate(1235,1146)"/>
<path d="M0 0 C30.69 0 61.38 0 93 0 C93 75.9 93 151.8 93 230 C116.43 230 139.86 230 164 230 C164 250.46 164 270.92 164 292 C109.88 292 55.76 292 0 292 C0 195.64 0 99.28 0 0 Z " fill="#018062" transform="translate(627,1146)"/>
<path d="M0 0 C0.886875 0.598125 1.77375 1.19625 2.6875 1.8125 C11.64318043 10.28408959 17.2786495 22.21482838 18.18361688 34.49077618 C18.25013868 37.22479156 18.2571361 39.95236909 18.24050903 42.68714905 C18.24221788 43.72797762 18.24392673 44.76880619 18.24568737 45.84117502 C18.24896718 49.30963391 18.23800338 52.77789698 18.22705078 56.24633789 C18.22648634 58.7402445 18.22680387 61.23415144 18.22793579 63.72805786 C18.22839042 69.08744359 18.22273785 74.446769 18.21146011 79.80613899 C18.19516534 87.5547575 18.18999305 95.30335249 18.18748413 103.05198627 C18.18311325 115.62540983 18.16982067 128.19880736 18.15087891 140.7722168 C18.13250436 152.98185089 18.11835557 165.1914779 18.10986328 177.40112305 C18.10933783 178.15446842 18.10881239 178.90781379 18.10827102 179.6839878 C18.10566083 183.46352208 18.10313344 187.2430564 18.10064721 191.02259076 C18.07993363 222.34841692 18.0430741 253.67419462 18 285 C-11.37 285 -40.74 285 -71 285 C-71.0093457 278.57901855 -71.01869141 272.15803711 -71.02832031 265.54248047 C-71.0620427 244.36013448 -71.11736316 223.17788595 -71.18390274 201.99561882 C-71.22372729 189.14909528 -71.25610245 176.30263331 -71.27099609 163.45605469 C-71.28399487 152.26014945 -71.31091422 141.06437948 -71.35461307 129.86855042 C-71.37726767 123.93936426 -71.39290828 118.01034519 -71.39188385 112.08111191 C-71.39113961 106.50130393 -71.40899566 100.92186585 -71.44116783 95.34215355 C-71.44969236 93.29351805 -71.45139952 91.24484119 -71.44580269 89.1961956 C-71.43917978 86.39964004 -71.45704251 83.60426727 -71.48101807 80.80783081 C-71.47325765 79.99653587 -71.46549723 79.18524093 -71.45750165 78.3493613 C-71.53694439 73.11746178 -72.55754305 70.1600539 -76 66 C-84.24370719 59.40503425 -93.83179121 59.00019704 -104 60 C-111.34536325 61.98055606 -115.19591176 65.7028156 -118.94140625 72.20703125 C-119.29074219 72.79871094 -119.64007812 73.39039063 -120 74 C-120.33 74 -120.66 74 -121 74 C-121.37238885 65.8290835 -121.65576922 57.66175884 -121.82899475 49.48443031 C-121.9121891 45.68593478 -122.02471707 41.89327707 -122.20703125 38.09814453 C-123.34995536 13.67333448 -123.34995536 13.67333448 -119.51690674 7.68170166 C-115.87029497 4.13007321 -111.71516021 2.23248711 -106.92590332 0.64703369 C-104.51970536 -0.16136158 -102.41052261 -1.32895882 -100.2109375 -2.5859375 C-98.93855772 -3.19554652 -97.66005284 -3.79258035 -96.375 -4.375 C-95.67971191 -4.69678223 -94.98442383 -5.01856445 -94.26806641 -5.35009766 C-87.68979557 -8.30424936 -80.99313268 -10.24737866 -74 -12 C-72.80375 -12.350625 -71.6075 -12.70125 -70.375 -13.0625 C-47.2412228 -19.48854922 -18.83025916 -14.61029524 0 0 Z " fill="#018061" transform="translate(1648,1153)"/>
<path d="M0 0 C29.04 0 58.08 0 88 0 C88 96.03 88 192.06 88 291 C58.96 291 29.92 291 0 291 C0 194.97 0 98.94 0 0 Z " fill="#008061" transform="translate(1438,1147)"/>
</svg>
