<svg xmlns:dc="http://purl.org/dc/elements/1.1/" xmlns:cc="http://creativecommons.org/ns#" xmlns:rdf="http://www.w3.org/1999/02/22-rdf-syntax-ns#" xmlns:svg="http://www.w3.org/2000/svg" xmlns="http://www.w3.org/2000/svg" viewBox="0 0 456 146.66667" height="146.66667" width="456" xml:space="preserve" id="svg2" version="1.1"><metadata id="metadata8"><rdf:RDF><cc:Work rdf:about=""><dc:format>image/svg+xml</dc:format><dc:type rdf:resource="http://purl.org/dc/dcmitype/StillImage"/></cc:Work></rdf:RDF></metadata><defs id="defs6"><clipPath id="clipPath18" clipPathUnits="userSpaceOnUse"><path id="path16" d="M 0,110 H 342 V 0 H 0 Z"/></clipPath></defs><g transform="matrix(1.3333333,0,0,-1.3333333,0,146.66667)" id="g10"><g id="g12"><g clip-path="url(#clipPath18)" id="g14"><g transform="translate(18.249,34.4028)" id="g20"><path id="path22" style="fill:#00b3e2;fill-opacity:1;fill-rule:nonzero;stroke:none" d="m 0,0 c 0,-5.491 0,-15.104 7.688,-15.104 5.906,0 7.964,5.492 7.964,9.474 0,17.442 -32.401,21.424 -32.401,50.394 0,14.689 7.961,26.634 23.064,26.634 16.064,0 22.243,-12.218 22.655,-29.794 H 13.042 c 0,5.491 0,14.691 -7.139,14.691 -4.255,0 -6.727,-3.57 -6.727,-8.924 0,-16.613 32.403,-22.241 32.403,-50.665 0,-14.964 -8.512,-26.91 -24.579,-26.91 -19.082,0 -22.928,16.749 -22.928,30.204 z"/></g><path id="path24" style="fill:#00b3e2;fill-opacity:1;fill-rule:nonzero;stroke:none" d="M 54.498,103.88 H 70.426 V 87.955 H 54.498 Z"/><path id="path26" style="fill:#00b3e2;fill-opacity:1;fill-rule:nonzero;stroke:none" d="M 54.498,75.046 H 70.426 V 6.115 H 54.498 Z"/><g transform="translate(102.8281,49.9175)" id="g28"><path id="path30" style="fill:#00b3e2;fill-opacity:1;fill-rule:nonzero;stroke:none" d="m 0,0 c -0.273,10.712 -1.233,14.694 -4.667,14.694 -3.573,0 -4.397,-4.118 -4.397,-25.816 0,-17.3 1.373,-21.418 5.082,-21.418 4.806,0 5.079,7.964 6.043,15.103 l 12.218,-0.409 c -0.273,-12.77 -2.882,-26.779 -19.085,-27.052 -12.494,0 -22.104,9.476 -22.104,35.564 0,26.085 9.61,35.562 22.104,35.562 15.379,0 17.985,-12.085 19.085,-25.813 z"/></g><g transform="translate(122.4629,103.8789)" id="g32"><path id="path34" style="fill:#00b3e2;fill-opacity:1;fill-rule:nonzero;stroke:none" d="m 0,0 h 15.927 v -52.861 h 0.276 l 12.218,24.03 H 41.604 L 30.618,-49.704 43.527,-97.762 h -15.93 l -7.825,31.036 H 19.636 L 15.927,-74.28 V -97.762 H 0 Z"/></g><g transform="translate(172.4424,103.8789)" id="g36"><path id="path38" style="fill:#005ba8;fill-opacity:1;fill-rule:nonzero;stroke:none" d="m 0,0 h 17.849 v -40.916 h 0.273 L 32.952,0 H 48.88 L 35.561,-32.815 51.625,-97.762 H 34.461 l -9.882,43.801 H 24.303 L 17.849,-69.34 V -97.762 H 0 Z"/></g><path id="path40" style="fill:#005ba8;fill-opacity:1;fill-rule:nonzero;stroke:none" d="m 228.598,103.88 h 15.927 V 87.955 h -15.927 z"/><path id="path42" style="fill:#005ba8;fill-opacity:1;fill-rule:nonzero;stroke:none" d="m 228.598,75.046 h 15.927 V 6.115 h -15.927 z"/><g transform="translate(278.7153,103.8789)" id="g44"><path id="path46" style="fill:#005ba8;fill-opacity:1;fill-rule:nonzero;stroke:none" d="m 0,0 v -32.679 h -0.273 c -1.921,2.612 -5.357,4.945 -10.024,4.945 -11.673,0 -17.028,-12.633 -17.028,-35.422 0,-22.521 4.121,-35.703 15.652,-35.703 6.321,0 8.924,3.024 12.082,6.594 h 0.278 v -5.497 h 15.237 l 0,97.762 z m 0,-85.128 c -0.822,-1.234 -2.47,-2.198 -4.807,-2.198 -4.666,0 -5.49,3.158 -5.49,24.307 0,21.691 1.233,24.576 5.9,24.576 2.064,0 3.712,-0.958 4.397,-2.197 z"/></g><g transform="translate(326.4971,55.8237)" id="g48"><path id="path50" style="fill:#005ba8;fill-opacity:1;fill-rule:nonzero;stroke:none" d="m 0,0 c -0.549,4.257 -1.509,8.788 -7.006,8.788 -3.019,0 -4.804,-2.885 -4.804,-5.906 0,-11.258 25.813,-12.355 25.813,-33.364 0,-11.943 -7.963,-20.322 -20.315,-20.322 -13.049,0 -18.404,7.827 -19.774,20.046 l 12.492,1.927 c 1.096,-7.418 2.751,-10.44 7.963,-10.44 3.295,0 5.358,2.473 5.358,5.634 0,10.845 -24.716,11.528 -24.716,34.87 0,10.985 7.825,19.088 18.949,19.088 11.119,0 16.61,-8.103 17.573,-18.4 z"/></g><g transform="translate(328.2856,87.8701)" id="g52"><path id="path54" style="fill:#005ba8;fill-opacity:1;fill-rule:nonzero;stroke:none" d="m 0,0 c -4.027,0 -7.324,3.297 -7.324,7.324 0,4.064 3.257,7.327 7.324,7.327 4.064,0 7.324,-3.263 7.324,-7.327 C 7.324,3.297 4.027,0 0,0 m 0,13.699 c -3.513,0 -6.375,-2.859 -6.375,-6.375 0,-3.516 2.862,-6.375 6.375,-6.375 3.516,0 6.372,2.859 6.372,6.375 0,3.55 -2.856,6.375 -6.372,6.375 m 0.147,-2.566 c 1.831,0 2.786,-0.731 2.786,-2.16 0,-0.918 -0.406,-1.538 -1.282,-1.942 L 3.152,3.553 H 1.356 L 0.219,6.665 H -0.807 V 3.553 h -1.649 v 7.58 z M -0.807,7.765 h 0.881 c 0.77,0 1.205,0.443 1.205,1.208 0,0.696 -0.395,1.066 -1.205,1.066 h -0.881 z"/></g></g></g></g></svg>