<?xml version="1.0" encoding="UTF-8"?>
<!DOCTYPE svg PUBLIC "-//W3C//DTD SVG 1.1//EN" "http://www.w3.org/Graphics/SVG/1.1/DTD/svg11.dtd">
<svg xmlns="http://www.w3.org/2000/svg" version="1.1" width="728px" height="617px" style="shape-rendering:geometricPrecision; text-rendering:geometricPrecision; image-rendering:optimizeQuality; fill-rule:evenodd; clip-rule:evenodd" xmlns:xlink="http://www.w3.org/1999/xlink">
<g><path style="opacity:0.975" fill="#fdfdfd" d="M 339.5,-0.5 C 362.5,-0.5 385.5,-0.5 408.5,-0.5C 477.667,1.81601 547.001,3.98268 616.5,6C 647.166,7.88347 674.499,18.2168 698.5,37C 714.09,51.6841 723.757,69.5175 727.5,90.5C 727.5,101.5 727.5,112.5 727.5,123.5C 721.157,157.361 703.157,183.194 673.5,201C 645.691,216.037 616.025,225.037 584.5,228C 560.548,230.701 536.548,231.534 512.5,230.5C 507.302,265.393 492.635,295.56 468.5,321C 477.499,316.847 486.833,313.18 496.5,310C 520.686,302.545 544.019,304.545 566.5,316C 591.499,333.186 601.999,357.019 598,387.5C 595.914,400.333 591.581,412.333 585,423.5C 580.52,472.308 555.687,506.141 510.5,525C 482.057,535.13 452.724,540.63 422.5,541.5C 413.774,580.059 390.108,603.893 351.5,613C 345.028,614.187 338.694,615.354 332.5,616.5C 312.5,616.5 292.5,616.5 272.5,616.5C 228.408,612.525 187.408,599.025 149.5,576C 139.928,569.764 130.928,562.764 122.5,555C 81.0467,562.863 45.8801,551.363 17,520.5C 7.96187,508.865 2.12853,495.865 -0.5,481.5C -0.5,470.833 -0.5,460.167 -0.5,449.5C 4.73979,423.633 14.2398,399.3 28,376.5C 45.8235,347.199 66.3235,319.865 89.5,294.5C 67.1232,274.344 60.2898,249.677 69,220.5C 73.2425,206.766 81.4091,196.1 93.5,188.5C 93.5254,177.889 93.6921,167.222 94,156.5C 101.381,110.786 127.881,83.9526 173.5,76C 195.347,74.7266 214.514,81.2266 231,95.5C 235.587,53.8419 257.42,25.3419 296.5,10C 310.579,4.88995 324.912,1.38995 339.5,-0.5 Z"/></g>
<g><path style="opacity:1" fill="#0f0f0f" d="M 349.5,27.5 C 439.201,29.1141 528.867,31.6141 618.5,35C 639.236,36.9277 658.236,43.5943 675.5,55C 696.965,73.4006 704.465,96.5673 698,124.5C 690.841,151.662 674.341,170.829 648.5,182C 617.821,194.671 585.821,201.338 552.5,202C 530.827,202.597 509.16,202.43 487.5,201.5C 486.53,242.28 471.864,277.113 443.5,306C 440.547,308.793 437.213,310.96 433.5,312.5C 431.5,312.5 430.5,311.5 430.5,309.5C 442.665,272.508 448.999,234.508 449.5,195.5C 420.821,195.133 392.154,194.3 363.5,193C 335.81,190.145 311.143,180.145 289.5,163C 266.937,141.979 257.437,116.145 261,85.5C 270.58,56.9235 290.08,39.0902 319.5,32C 324.435,30.733 329.435,29.8997 334.5,29.5C 339.731,29.5557 344.731,28.889 349.5,27.5 Z"/></g>
<g><path style="opacity:1" fill="#444444" d="M 349.5,27.5 C 344.731,28.889 339.731,29.5557 334.5,29.5C 339.269,28.111 344.269,27.4443 349.5,27.5 Z"/></g>
<g><path style="opacity:1" fill="#b7b7b7" d="M 351.5,33.5 C 346.731,34.889 341.731,35.5557 336.5,35.5C 341.269,34.111 346.269,33.4443 351.5,33.5 Z"/></g>
<g><path style="opacity:1" fill="#fdfdfd" d="M 351.5,33.5 C 440.535,35.073 529.535,37.573 618.5,41C 636.739,43.0796 653.739,48.7463 669.5,58C 679.805,65.1296 686.805,74.6296 690.5,86.5C 690.41,89.1522 691.076,91.4855 692.5,93.5C 696.827,134.003 680.161,162.17 642.5,178C 613.522,188.942 583.522,194.942 552.5,196C 529.824,196.461 507.157,196.461 484.5,196C 482.951,197.214 481.785,198.714 481,200.5C 480.587,238.271 467.754,270.938 442.5,298.5C 441.662,298.158 441.328,297.492 441.5,296.5C 450.737,262.804 455.237,228.47 455,193.5C 453.833,192.333 452.667,191.167 451.5,190C 422.836,188.911 394.17,187.911 365.5,187C 339.994,184.737 316.994,176.071 296.5,161C 271.336,139.504 262.169,112.671 269,80.5C 278.625,59.2214 294.791,45.3881 317.5,39C 323.76,37.2987 330.093,36.1321 336.5,35.5C 341.731,35.5557 346.731,34.889 351.5,33.5 Z"/></g>
<g><path style="opacity:1" fill="#ababab" d="M 690.5,86.5 C 691.924,88.5145 692.59,90.8478 692.5,93.5C 691.076,91.4855 690.41,89.1522 690.5,86.5 Z"/></g>
<g><path style="opacity:1" fill="#0b0b0b" d="M 317.5,93.5 C 325.586,93.6735 333.586,94.5068 341.5,96C 343.515,97.5553 343.848,99.3886 342.5,101.5C 339.579,102.407 336.579,102.74 333.5,102.5C 333.5,110.5 333.5,118.5 333.5,126.5C 331.856,126.714 330.356,126.38 329,125.5C 328.667,117.833 328.333,110.167 328,102.5C 324.929,100.929 321.762,99.4292 318.5,98C 316.452,96.7741 316.119,95.2741 317.5,93.5 Z"/></g>
<g><path style="opacity:1" fill="#111111" d="M 400.5,94.5 C 406.957,93.0877 411.957,95.0877 415.5,100.5C 414.473,102.024 412.973,102.691 411,102.5C 408.171,101.797 405.338,101.63 402.5,102C 401.09,102.368 400.09,103.201 399.5,104.5C 403.705,107.859 408.205,110.859 413,113.5C 416.44,123.39 412.94,128.224 402.5,128C 398.884,125.89 396.218,123.056 394.5,119.5C 399.117,120.487 403.784,121.154 408.5,121.5C 408.822,119.278 408.155,117.444 406.5,116C 401.468,114.402 396.968,111.902 393,108.5C 392.333,106.167 392.333,103.833 393,101.5C 395.396,98.9334 397.896,96.6 400.5,94.5 Z"/></g>
<g><path style="opacity:1" fill="#181818" d="M 461.5,94.5 C 462.496,94.4142 463.329,94.7476 464,95.5C 465.756,107.156 465.923,118.822 464.5,130.5C 461.14,131.21 459.307,129.876 459,126.5C 458.75,116.493 459.083,106.493 460,96.5C 460.717,95.9558 461.217,95.2891 461.5,94.5 Z"/></g>
<g><path style="opacity:1" fill="#0d0d0d" d="M 363.5,96.5 C 365.39,96.2965 366.89,96.9632 368,98.5C 368.667,107.5 368.667,116.5 368,125.5C 365.733,126.935 363.733,126.602 362,124.5C 361.782,121.574 361.282,118.74 360.5,116C 358.5,115.333 356.5,115.333 354.5,116C 353.703,119.745 353.203,123.579 353,127.5C 350.81,130.249 349.143,129.915 348,126.5C 347.237,117.642 347.404,108.809 348.5,100C 348.68,97.7586 349.513,97.2586 351,98.5C 352.746,101.834 353.913,105.334 354.5,109C 356.833,109.667 359.167,109.667 361.5,109C 362.264,104.873 362.931,100.707 363.5,96.5 Z"/></g>
<g><path style="opacity:1" fill="#141414" d="M 477.5,95.5 C 481.182,95.3347 484.848,95.5014 488.5,96C 491.684,97.8064 492.017,99.8064 489.5,102C 486.183,102.498 482.85,102.665 479.5,102.5C 479.5,103.833 479.5,105.167 479.5,106.5C 484.25,108.029 488.916,109.863 493.5,112C 497.311,115.273 497.478,118.773 494,122.5C 489.122,128.038 483.288,129.538 476.5,127C 475.139,125.416 474.472,123.582 474.5,121.5C 478.846,121.666 483.179,121.499 487.5,121C 490.039,119.901 490.705,118.234 489.5,116C 483.17,115.25 477.67,112.75 473,108.5C 471.699,106.635 471.365,104.635 472,102.5C 473.666,100.004 475.5,97.671 477.5,95.5 Z"/></g>
<g><path style="opacity:1" fill="#121212" d="M 615.5,95.5 C 624.79,96.4221 628.457,101.422 626.5,110.5C 620.889,114.952 614.889,115.952 608.5,113.5C 605.668,117.2 606.001,120.7 609.5,124C 614.75,124.193 619.917,124.693 625,125.5C 625.711,127.367 625.211,128.867 623.5,130C 617.023,133.314 610.69,132.981 604.5,129C 599.096,120.813 599.263,112.646 605,104.5C 608.103,100.886 611.603,97.886 615.5,95.5 Z"/></g>
<g><path style="opacity:1" fill="#0b0b0b" d="M 534.5,96.5 C 540.509,96.3338 546.509,96.5005 552.5,97C 553.931,97.4652 555.097,98.2986 556,99.5C 556.456,100.744 555.956,101.577 554.5,102C 548.917,102.191 543.417,102.691 538,103.5C 535.494,111.495 538.328,114.495 546.5,112.5C 546.714,114.144 546.38,115.644 545.5,117C 542.851,117.452 540.351,118.286 538,119.5C 537.703,122.914 537.036,126.247 536,129.5C 534.667,130.833 533.333,130.833 532,129.5C 531.333,119.5 531.333,109.5 532,99.5C 533.045,98.6266 533.878,97.6266 534.5,96.5 Z"/></g>
<g><path style="opacity:1" fill="#111111" d="M 576.5,99.5 C 577.822,99.33 578.989,99.6634 580,100.5C 582.932,105.377 586.099,110.043 589.5,114.5C 590.125,110.093 590.958,105.759 592,101.5C 594.091,100.5 595.757,101.167 597,103.5C 598.098,110.385 597.431,117.051 595,123.5C 593.951,124.517 592.784,124.684 591.5,124C 588.135,120.739 585.135,117.239 582.5,113.5C 581.827,118.606 580.827,123.606 579.5,128.5C 578.167,128.5 576.833,128.5 575.5,128.5C 575.194,118.75 575.527,109.084 576.5,99.5 Z"/></g>
<g><path style="opacity:1" fill="#141414" d="M 377.5,100.5 C 379.624,101.031 381.124,102.365 382,104.5C 382.667,112.833 382.667,121.167 382,129.5C 380.667,130.833 379.333,130.833 378,129.5C 377.675,121.654 377.175,113.821 376.5,106C 376.581,104.076 376.914,102.243 377.5,100.5 Z"/></g>
<g><path style="opacity:1" fill="#191919" d="M 562.5,102.5 C 564.411,102.574 565.578,103.574 566,105.5C 566.667,112.833 566.667,120.167 566,127.5C 564.522,130.993 562.522,131.326 560,128.5C 560.605,119.798 561.438,111.131 562.5,102.5 Z"/></g>
<g><path style="opacity:1" fill="#ebebeb" d="M 615.5,102.5 C 620.22,102.206 621.886,104.206 620.5,108.5C 617.009,110.094 613.342,110.761 609.5,110.5C 610.345,106.985 612.345,104.319 615.5,102.5 Z"/></g>
<g><path style="opacity:1" fill="#050403" d="M 430.5,512.5 C 418.833,512.5 407.167,512.5 395.5,512.5C 395.5,518.5 395.5,524.5 395.5,530.5C 391.476,559.703 375.143,577.87 346.5,585C 294.104,593.859 243.438,588.192 194.5,568C 167.986,556.47 145.152,539.97 126,518.5C 114.203,528.158 100.703,531.658 85.5,529C 37.4094,516.9 19.2427,486.734 31,438.5C 40.6762,411.144 54.0095,385.81 71,362.5C 87.8315,339.66 106.165,317.993 126,297.5C 128.589,292.579 131.089,287.579 133.5,282.5C 102.148,277.348 89.6482,259.348 96,228.5C 102.176,214.326 113.009,206.993 128.5,206.5C 122.289,188.946 120.456,170.946 123,152.5C 129.387,127.779 144.887,111.946 169.5,105C 184.55,102.846 198.217,106.18 210.5,115C 228.233,130.247 241.566,148.747 250.5,170.5C 255.085,166.416 260.085,162.916 265.5,160C 276.144,157.437 284.977,160.271 292,168.5C 304.729,184.936 305.896,202.269 295.5,220.5C 315.186,229.421 332.02,242.088 346,258.5C 350.696,264.556 354.363,271.223 357,278.5C 395.224,290.771 412.891,317.104 410,357.5C 409.275,362.294 408.109,366.96 406.5,371.5C 406.833,372.167 407.167,372.833 407.5,373.5C 425.607,364.087 444.94,359.254 465.5,359C 479.304,346.765 495.304,338.765 513.5,335C 528.553,332.545 542.553,335.211 555.5,343C 570.68,356.568 574.847,373.068 568,392.5C 565.388,400.391 561.721,407.724 557,414.5C 556.356,455.797 536.856,483.964 498.5,499C 476.429,506.381 453.763,510.881 430.5,512.5 Z"/></g>
<g><path style="opacity:1" fill="#d99144" d="M 170.5,111.5 C 185.122,109.986 198.122,113.82 209.5,123C 222.855,134.904 232.855,149.071 239.5,165.5C 216.252,168.478 193.586,173.978 171.5,182C 158.722,187.398 146.056,192.732 133.5,198C 126.745,179.085 126.911,160.252 134,141.5C 142.422,126.909 154.588,116.909 170.5,111.5 Z"/></g>
<g><path style="opacity:1" fill="#181818" d="M 635.5,122.5 C 639.648,122.453 641.148,124.453 640,128.5C 636.974,130.916 634.807,130.083 633.5,126C 633.978,124.697 634.645,123.531 635.5,122.5 Z"/></g>
<g><path style="opacity:1" fill="#d89144" d="M 119.5,215.5 C 126.799,214.65 134.132,214.317 141.5,214.5C 152.664,218.164 163.998,221.331 175.5,224C 193.27,226.41 208.937,221.743 222.5,210C 229.636,203.865 236.469,197.365 243,190.5C 248.427,183.069 254.593,176.236 261.5,170C 273.372,162.827 282.872,165.327 290,177.5C 297.251,190.446 297.251,203.446 290,216.5C 280.865,229.295 269.032,238.795 254.5,245C 221.52,259.219 187.52,262.219 152.5,254C 143.299,251.483 134.299,248.816 125.5,246C 130.705,250.103 136.372,253.437 142.5,256C 143.022,256.561 143.355,257.228 143.5,258C 141.471,263.224 139.305,268.391 137,273.5C 118.298,274.816 106.298,266.483 101,248.5C 99.1497,236.058 102.983,225.892 112.5,218C 114.65,216.589 116.984,215.755 119.5,215.5 Z"/></g>
<g><path style="opacity:1" fill="#8e602d" d="M 141.5,214.5 C 134.132,214.317 126.799,214.65 119.5,215.5C 120.263,214.732 121.263,214.232 122.5,214C 129.014,213.18 135.347,213.347 141.5,214.5 Z"/></g>
<g><path style="opacity:1" fill="#efac31" d="M 296.5,387.5 C 297.167,386.833 297.833,386.167 298.5,385.5C 319.417,418.3 347.083,425.467 381.5,407C 389.881,400.552 396.881,392.886 402.5,384C 418.971,373.397 436.971,368.064 456.5,368C 446.12,379.258 439.287,392.425 436,407.5C 433.408,442.91 449.908,460.076 485.5,459C 510.525,455.157 531.525,443.991 548.5,425.5C 545.971,453.892 531.971,474.726 506.5,488C 488.051,496.446 468.718,501.78 448.5,504C 428.508,506.369 408.508,506.869 388.5,505.5C 383.731,504.111 378.731,503.444 373.5,503.5C 343.831,499.656 316.497,489.656 291.5,473.5C 293.91,471.628 296.577,470.295 299.5,469.5C 300.756,469.539 301.756,469.039 302.5,468C 299.633,467.199 296.966,467.366 294.5,468.5C 270.59,473.958 251.756,486.625 238,506.5C 242.118,503.031 246.618,500.531 251.5,499C 264.083,517.585 279.417,533.585 297.5,547C 312.811,557.929 329.811,562.263 348.5,560C 362.47,556.032 371.97,547.199 377,533.5C 379.897,526.449 381.397,519.115 381.5,511.5C 384.206,511.575 386.873,511.908 389.5,512.5C 390.922,554.584 370.588,577.417 328.5,581C 309.82,581.722 291.153,581.555 272.5,580.5C 267.731,579.111 262.731,578.444 257.5,578.5C 209.246,572.122 168.08,551.789 134,517.5C 133.15,515.99 132.317,514.49 131.5,513C 142.068,493.9 147.902,473.4 149,451.5C 151.713,398.705 147.213,346.538 135.5,295C 140.373,282.85 145.706,271.017 151.5,259.5C 168.054,264.94 185.054,266.94 202.5,265.5C 208.82,265.6 214.82,264.6 220.5,262.5C 248.008,258.243 271.674,246.576 291.5,227.5C 311.243,235.082 327.743,247.082 341,263.5C 344.34,268.175 347.173,273.175 349.5,278.5C 320.946,281.375 301.779,296.375 292,323.5C 290.409,328.024 289.409,332.691 289,337.5C 268.457,304.314 239.623,293.814 202.5,306C 169.51,325.156 156.343,353.656 163,391.5C 174.27,432.137 200.77,450.637 242.5,447C 272.876,438.455 290.876,418.621 296.5,387.5 Z"/></g>
<g><path style="opacity:1" fill="#b98527" d="M 220.5,262.5 C 214.82,264.6 208.82,265.6 202.5,265.5C 208.31,264.143 214.31,263.143 220.5,262.5 Z"/></g>
<g><path style="opacity:1" fill="#fafafa" d="M 338.5,286.5 C 362.957,283.73 381.623,292.73 394.5,313.5C 373.248,297.756 354.415,300.756 338,322.5C 327.661,339.833 325.661,358.166 332,377.5C 342.525,400.177 359.025,406.011 381.5,395C 384.965,392.537 388.131,389.704 391,386.5C 382.779,399.895 370.612,407.728 354.5,410C 332.752,411.042 316.252,402.208 305,383.5C 288.065,350.56 292.899,321.394 319.5,296C 325.378,291.727 331.712,288.561 338.5,286.5 Z"/></g>
<g><path style="opacity:1" fill="#858585" d="M 441.5,296.5 C 441.328,297.492 441.662,298.158 442.5,298.5C 441.698,299.885 441.031,299.718 440.5,298C 440.57,297.235 440.903,296.735 441.5,296.5 Z"/></g>
<g><path style="opacity:1" fill="#fafafa" d="M 219.5,307.5 C 255.283,305.972 278.45,322.306 289,356.5C 294.63,385.181 286.797,409.348 265.5,429C 232.63,449.823 204.13,444.99 180,414.5C 168.178,395.196 165.178,374.53 171,352.5C 179.09,328.569 195.257,313.569 219.5,307.5 Z"/></g>
<g><path style="opacity:1" fill="#020202" d="M 202.5,372.5 C 203.924,370.485 204.59,368.152 204.5,365.5C 213.424,339.397 231.091,330.23 257.5,338C 278.604,351.947 286.438,371.447 281,396.5C 274.63,421.924 258.464,433.424 232.5,431C 215.552,423.635 205.386,410.802 202,392.5C 201.244,385.783 201.411,379.117 202.5,372.5 Z"/></g>
<g><path style="opacity:1" fill="#484848" d="M 204.5,365.5 C 204.59,368.152 203.924,370.485 202.5,372.5C 202.41,369.848 203.076,367.515 204.5,365.5 Z"/></g>
<g><path style="opacity:1" fill="#79571a" d="M 298.5,385.5 C 297.833,386.167 297.167,386.833 296.5,387.5C 296.281,386.325 296.614,385.325 297.5,384.5C 298.107,384.624 298.44,384.957 298.5,385.5 Z"/></g>
<g><path style="opacity:1" fill="#674b17" d="M 294.5,468.5 C 296.966,467.366 299.633,467.199 302.5,468C 301.756,469.039 300.756,469.539 299.5,469.5C 298.081,468.549 296.415,468.216 294.5,468.5 Z"/></g>
<g><path style="opacity:1" fill="#f7f7f7" d="M 282.5,477.5 C 292.753,483.631 303.42,489.297 314.5,494.5C 315.521,495.002 315.688,495.668 315,496.5C 301.974,504.189 289.974,502.856 279,492.5C 277.111,489.888 275.611,487.055 274.5,484C 276.715,481.286 279.382,479.119 282.5,477.5 Z"/></g>
<g><path style="opacity:1" fill="#df7048" d="M 266.5,487.5 C 269.868,491.179 273.035,495.179 276,499.5C 284.089,506.693 293.589,509.693 304.5,508.5C 306.096,514.125 307.596,519.792 309,525.5C 309.831,532.192 309.664,538.858 308.5,545.5C 288.564,532.398 271.731,516.065 258,496.5C 257.333,495.5 257.333,494.5 258,493.5C 260.988,491.601 263.821,489.601 266.5,487.5 Z"/></g>
<g><path style="opacity:1" fill="#f4f4f4" d="M 322.5,497.5 C 332.822,501.75 343.488,505.084 354.5,507.5C 349.158,516.994 341.158,520.161 330.5,517C 321.071,513.305 318.404,506.805 322.5,497.5 Z"/></g>
<g><path style="opacity:1" fill="#90681f" d="M 373.5,503.5 C 378.731,503.444 383.731,504.111 388.5,505.5C 383.269,505.556 378.269,504.889 373.5,503.5 Z"/></g>
<g><path style="opacity:1" fill="#f6f6f6" d="M 360.5,509.5 C 365.181,509.669 369.848,510.002 374.5,510.5C 373.611,518.22 369.277,521.72 361.5,521C 359.981,519.649 358.648,518.149 357.5,516.5C 358.788,514.261 359.788,511.928 360.5,509.5 Z"/></g>
<g><path style="opacity:1" fill="#4a4a4a" d="M 430.5,512.5 C 419.346,513.495 408.012,513.828 396.5,513.5C 396.822,519.358 396.489,525.025 395.5,530.5C 395.5,524.5 395.5,518.5 395.5,512.5C 407.167,512.5 418.833,512.5 430.5,512.5 Z"/></g>
<g><path style="opacity:1" fill="#9f7322" d="M 257.5,578.5 C 262.731,578.444 267.731,579.111 272.5,580.5C 267.269,580.556 262.269,579.889 257.5,578.5 Z"/></g>
</svg>
