<?xml version="1.0" encoding="UTF-8"?>
<svg version="1.1" xmlns="http://www.w3.org/2000/svg" width="800" height="800">
<path d="M0 0 C3.66011493 -0.04880153 7.31483797 -0.0252218 10.97460938 0.04052734 C12.64245975 0.06955422 14.31047137 0.09001025 15.97851562 0.10400391 C57.34189915 0.53396156 100.40960851 11.3668323 137.359375 30.08203125 C138.01147949 30.40751953 138.66358398 30.73300781 139.33544922 31.06835938 C168.69720656 45.80165728 194.7665293 65.33178718 218.359375 88.08203125 C218.86210938 88.56285156 219.36484375 89.04367188 219.8828125 89.5390625 C225.4907405 94.9146178 225.4907405 94.9146178 227.359375 97.08203125 C227.359375 97.74203125 227.359375 98.40203125 227.359375 99.08203125 C228.019375 99.08203125 228.679375 99.08203125 229.359375 99.08203125 C230.77644002 100.63091627 232.11746996 102.24964659 233.421875 103.89453125 C236.4806809 107.7290152 239.57198634 111.52024883 242.734375 115.26953125 C251.58333936 126.10720014 259.11951376 137.90415146 266.13769531 149.98901367 C267.07576486 151.59614201 268.02519321 153.19664464 268.97949219 154.79418945 C293.03330134 195.33649682 306.70440225 243.99117002 307.359375 291.08203125 C307.37452148 292.07589844 307.38966797 293.06976563 307.40527344 294.09375 C307.49862654 301.42538415 307.46320022 308.75074904 307.359375 316.08203125 C307.35212402 316.93055664 307.34487305 317.77908203 307.33740234 318.65332031 C307.01184136 345.83490316 300.97992325 373.37323309 292.359375 399.08203125 C292.11928711 399.79955566 291.87919922 400.51708008 291.63183594 401.25634766 C288.64827218 410.10006631 285.39659815 418.65799299 281.359375 427.08203125 C280.76632448 428.3767334 280.17533748 429.6723819 279.5859375 430.96875 C267.94326688 456.42351474 252.76541729 481.16059678 233.58984375 501.67578125 C231.7181422 503.69498993 229.91489815 505.7476994 228.1171875 507.83203125 C224.26097607 512.2532837 220.1922271 516.4328373 216.046875 520.58203125 C215.33208984 521.3090625 214.61730469 522.03609375 213.88085938 522.78515625 C212.85508789 523.81382812 212.85508789 523.81382812 211.80859375 524.86328125 C211.19330811 525.48267578 210.57802246 526.10207031 209.9440918 526.74023438 C208.359375 528.08203125 208.359375 528.08203125 206.359375 528.08203125 C206.359375 528.74203125 206.359375 529.40203125 206.359375 530.08203125 C202.91494451 533.333038 199.08754912 536.16359179 195.359375 539.08203125 C194.71129883 539.5929834 194.06322266 540.10393555 193.39550781 540.63037109 C184.02133262 548.00214423 174.48640882 554.79287088 164.359375 561.08203125 C163.42867187 561.695625 162.49796875 562.30921875 161.5390625 562.94140625 C154.44010091 567.61885616 147.02375631 571.4224066 139.359375 575.08203125 C138.76108887 575.37078125 138.16280273 575.65953125 137.54638672 575.95703125 C111.59753501 588.4604844 85.6652704 596.75565308 57.359375 602.08203125 C56.50698242 602.24622559 55.65458984 602.41041992 54.77636719 602.57958984 C32.81323663 606.77882419 10.63440875 606.33865606 -11.640625 606.08203125 C-12.56907227 606.07478027 -13.49751953 606.0675293 -14.45410156 606.06005859 C-36.41560318 605.7978715 -58.6411762 601.30488765 -79.640625 595.08203125 C-81.27451172 594.62570312 -81.27451172 594.62570312 -82.94140625 594.16015625 C-102.06876869 588.6188111 -121.80361519 581.10826466 -138.85546875 570.7578125 C-141.53445737 569.14591051 -144.25176683 567.66741046 -147.015625 566.20703125 C-163.43418483 557.2813478 -178.17829218 545.84437218 -192.640625 534.08203125 C-194.01154297 533.045625 -194.01154297 533.045625 -195.41015625 531.98828125 C-196.14621094 531.35921875 -196.88226563 530.73015625 -197.640625 530.08203125 C-197.640625 529.42203125 -197.640625 528.76203125 -197.640625 528.08203125 C-198.49297729 527.71646118 -198.49297729 527.71646118 -199.36254883 527.34350586 C-202.06144001 525.8490068 -203.90486799 524.07692484 -206.08984375 521.8984375 C-206.93377686 521.05853271 -207.77770996 520.21862793 -208.6472168 519.35327148 C-209.5319165 518.45938721 -210.41661621 517.56550293 -211.328125 516.64453125 C-212.68514526 515.27953491 -212.68514526 515.27953491 -214.06958008 513.88696289 C-220.00196855 507.86969555 -225.48963195 501.7804865 -230.640625 495.08203125 C-232.11822251 493.33070614 -233.5974521 491.58075701 -235.078125 489.83203125 C-240.45503957 483.25091186 -245.05055005 476.22116441 -249.640625 469.08203125 C-250.0545752 468.4463623 -250.46852539 467.81069336 -250.89501953 467.15576172 C-257.83733905 456.48048728 -263.87133059 445.42891068 -269.640625 434.08203125 C-270.17091309 433.0597644 -270.17091309 433.0597644 -270.71191406 432.0168457 C-273.01191188 427.53184996 -274.92240284 423.00573125 -276.640625 418.26953125 C-276.8984375 417.56868408 -277.15625 416.86783691 -277.421875 416.14575195 C-277.93417212 414.75150331 -278.44465349 413.35658586 -278.953125 411.9609375 C-279.52665261 410.3935126 -280.11327894 408.83088847 -280.703125 407.26953125 C-291.6491818 378.08004646 -298.18935309 347.31236171 -298.640625 316.08203125 C-298.66334473 314.62265137 -298.66334473 314.62265137 -298.68652344 313.13378906 C-298.78129345 305.78102318 -298.74254234 298.43446802 -298.640625 291.08203125 C-298.62974854 289.75848633 -298.62974854 289.75848633 -298.61865234 288.40820312 C-298.19171803 250.92481784 -287.72846473 213.20968648 -272.640625 179.08203125 C-272.3528418 178.41751953 -272.06505859 177.75300781 -271.76855469 177.06835938 C-260.09246344 150.26613007 -243.29483971 124.41898237 -223.35546875 103.0078125 C-221.58498561 101.18810556 -221.58498561 101.18810556 -220.640625 99.08203125 C-219.980625 99.08203125 -219.320625 99.08203125 -218.640625 99.08203125 C-218.38104004 98.49719971 -218.12145508 97.91236816 -217.85400391 97.30981445 C-216.55418592 94.92332771 -215.15105778 93.34900914 -213.2265625 91.4375 C-212.54722656 90.76009766 -211.86789063 90.08269531 -211.16796875 89.38476562 C-210.45769531 88.68673828 -209.74742187 87.98871094 -209.015625 87.26953125 C-208.32855469 86.58310547 -207.64148438 85.89667969 -206.93359375 85.18945312 C-194.09581333 72.46005922 -179.95856817 60.69628201 -164.640625 51.08203125 C-163.31366797 50.23849218 -161.98685377 49.3947284 -160.66015625 48.55078125 C-150.46298133 42.09312535 -140.14406551 36.25772397 -129.31054688 30.93505859 C-126.50032016 29.54848779 -123.77649345 28.16611033 -121.109375 26.515625 C-118.00245357 24.71144752 -114.7558066 23.49014919 -111.390625 22.26953125 C-110.69606201 22.01381348 -110.00149902 21.7580957 -109.28588867 21.49462891 C-107.07325266 20.68350246 -104.8574611 19.88160142 -102.640625 19.08203125 C-101.91633301 18.8195459 -101.19204102 18.55706055 -100.44580078 18.28662109 C-67.70070442 6.45077854 -34.7735223 0.62471912 0 0 Z M-50.94726562 39.3996582 C-53.42101339 40.0263918 -55.87701605 40.52287268 -58.390625 40.95703125 C-65.02183944 42.2297966 -71.39499355 44.43545247 -77.81054688 46.50341797 C-80.15705787 47.24531112 -82.52229071 47.9135498 -84.890625 48.58203125 C-95.70932289 51.83482912 -105.70762943 57.00669602 -115.73486328 62.11962891 C-118.49954497 63.51578254 -121.29180567 64.85469028 -124.078125 66.20703125 C-128.36475308 68.34455255 -132.31798606 70.70871772 -136.21484375 73.4921875 C-138.38405694 74.91387795 -140.55681632 76.11473231 -142.84375 77.33203125 C-147.86383187 80.09129794 -152.24214322 83.44381764 -156.703125 87.01953125 C-158.21431729 88.21681063 -159.72603232 89.41343051 -161.23828125 90.609375 C-161.96418457 91.18800293 -162.69008789 91.76663086 -163.43798828 92.36279297 C-166.30170615 94.5980292 -169.24299332 96.7194767 -172.20483398 98.82250977 C-172.67864502 99.23815186 -173.15245605 99.65379395 -173.640625 100.08203125 C-173.640625 100.74203125 -173.640625 101.40203125 -173.640625 102.08203125 C-174.20885986 102.32574463 -174.77709473 102.56945801 -175.36254883 102.82055664 C-178.06144001 104.3150557 -179.90486799 106.08713766 -182.08984375 108.265625 C-182.93361572 109.10520752 -183.7773877 109.94479004 -184.64672852 110.80981445 C-185.53158936 111.704021 -186.4164502 112.59822754 -187.328125 113.51953125 C-188.23425537 114.4324292 -189.14038574 115.34532715 -190.07397461 116.28588867 C-195.99483406 122.29885157 -201.60579447 128.29981836 -206.640625 135.08203125 C-207.26275879 135.90550049 -207.26275879 135.90550049 -207.89746094 136.74560547 C-226.87040296 161.8680689 -241.72902638 188.12490576 -251.640625 218.08203125 C-251.8581543 218.72285645 -252.07568359 219.36368164 -252.29980469 220.02392578 C-260.45950374 244.11417193 -264.0982033 268.80968126 -265.578125 294.14453125 C-265.64805664 295.12534668 -265.71798828 296.10616211 -265.79003906 297.11669922 C-266.07306859 303.34010809 -265.36038124 307.96085984 -261.640625 313.08203125 C-258.33706239 315.97766406 -254.8766586 317.08203125 -250.515625 317.08203125 C-244.22002181 314.89225623 -240.38826348 310.95183581 -236.515625 305.70703125 C-235.54653724 304.44097032 -234.57511254 303.17669533 -233.6015625 301.9140625 C-233.10881836 301.27291504 -232.61607422 300.63176758 -232.10839844 299.97119141 C-208.40689719 269.46516734 -208.40689719 269.46516734 -197.640625 264.08203125 C-197.640625 263.42203125 -197.640625 262.76203125 -197.640625 262.08203125 C-197.06054688 261.82292969 -196.48046875 261.56382812 -195.8828125 261.296875 C-193.46598548 259.98740949 -191.77103824 258.52119228 -189.765625 256.64453125 C-151.06190024 221.61480982 -100.91738247 195.55096736 -50.640625 182.08203125 C-49.43148437 181.75332031 -48.22234375 181.42460937 -46.9765625 181.0859375 C-17.14870133 173.27966426 13.5778015 169.86005204 44.359375 169.89453125 C45.27177948 169.89480316 46.18418396 169.89507507 47.12423706 169.89535522 C59.46224568 169.91227459 71.65513185 170.12059894 83.90136719 171.76123047 C86.69888025 172.12634093 89.50020482 172.43529365 92.3046875 172.7421875 C122.03337902 176.0813895 152.59867776 183.45241482 177.359375 201.08203125 C178.27847656 201.70722656 179.19757813 202.33242188 180.14453125 202.9765625 C191.60921408 210.97187776 202.83335233 221.36145292 206.859375 235.26953125 C207.94060185 243.51388599 208.42124403 251.00118312 203.359375 258.08203125 C198.27553989 262.71619052 191.9254616 262.61197292 185.36328125 262.421875 C181.84553662 262.02389869 179.32449343 261.00535131 176.359375 259.08203125 C175.699375 259.08203125 175.039375 259.08203125 174.359375 259.08203125 C173.699375 257.76203125 173.039375 256.44203125 172.359375 255.08203125 C171.699375 255.08203125 171.039375 255.08203125 170.359375 255.08203125 C170.11574219 254.5509375 169.87210938 254.01984375 169.62109375 253.47265625 C164.10081729 243.01318506 155.99954599 229.9693679 144.359375 226.08203125 C136.33217686 223.60506725 129.61642744 226.43182925 122.359375 230.08203125 C118.4528712 232.48643479 114.89673535 235.16581453 111.359375 238.08203125 C110.493125 238.79617188 109.626875 239.5103125 108.734375 240.24609375 C96.39418441 250.89327039 86.87633896 264.32112265 82.359375 280.08203125 C82.17745605 280.69771973 81.99553711 281.3134082 81.80810547 281.94775391 C74.95500568 306.01760144 75.52802782 333.72187052 87.359375 356.08203125 C87.74996094 356.85804688 88.14054687 357.6340625 88.54296875 358.43359375 C94.00305147 368.85250569 102.54765111 380.44468862 112.359375 387.08203125 C113.019375 387.08203125 113.679375 387.08203125 114.359375 387.08203125 C114.359375 387.74203125 114.359375 388.40203125 114.359375 389.08203125 C136.18528284 404.88810905 162.23195565 410.29493181 188.8203125 406.546875 C192.3943113 405.87260512 195.85776622 405.06197484 199.359375 404.08203125 C200.37644531 403.80359375 201.39351562 403.52515625 202.44140625 403.23828125 C215.41176485 399.29447628 227.84096018 392.66100413 238.359375 384.08203125 C238.359375 383.42203125 238.359375 382.76203125 238.359375 382.08203125 C239.25076172 381.67597656 239.25076172 381.67597656 240.16015625 381.26171875 C254.26897359 373.69357872 264.63099032 352.57952516 269.5546875 337.9609375 C284.77342802 283.51330759 266.0475058 218.99433233 239.359375 171.08203125 C238.99086426 170.41961426 238.62235352 169.75719727 238.24267578 169.07470703 C226.38278565 148.0091539 210.98964925 129.51580973 194.359375 112.08203125 C193.82521973 111.51726074 193.29106445 110.95249023 192.74072266 110.37060547 C191.32038673 108.90121826 189.84367386 107.48677671 188.359375 106.08203125 C187.699375 106.08203125 187.039375 106.08203125 186.359375 106.08203125 C186.029375 105.09203125 185.699375 104.10203125 185.359375 103.08203125 C182.30429474 100.04925926 182.30429474 100.04925926 178.359375 99.08203125 C178.359375 98.42203125 178.359375 97.76203125 178.359375 97.08203125 C176.43578396 95.43280822 174.51291773 93.90512427 172.484375 92.39453125 C171.8857666 91.94319824 171.2871582 91.49186523 170.67041016 91.02685547 C168.9063396 89.70321311 167.13464981 88.39059401 165.359375 87.08203125 C164.56015625 86.49035156 163.7609375 85.89867187 162.9375 85.2890625 C124.0767336 57.38372493 80.75355529 41.04791132 33.359375 35.08203125 C32.6974968 34.99763794 32.03561859 34.91324463 31.35368347 34.82629395 C26.10228541 34.19368685 20.93168931 33.90998892 15.64453125 33.87890625 C14.83924484 33.87198257 14.03395844 33.8650589 13.20426941 33.85792542 C10.6100879 33.84071281 8.01611098 33.83433482 5.421875 33.83203125 C4.53520142 33.83069183 3.64852783 33.82935242 2.73498535 33.82797241 C-15.44580855 33.83391706 -33.28815104 34.73069533 -50.94726562 39.3996582 Z M-2.640625 203.58203125 C-3.46296631 203.84830322 -4.28530762 204.1145752 -5.13256836 204.38891602 C-17.36001419 208.50397843 -28.3368855 214.3175025 -38.640625 222.08203125 C-39.630625 222.74203125 -40.620625 223.40203125 -41.640625 224.08203125 C-41.640625 224.74203125 -41.640625 225.40203125 -41.640625 226.08203125 C-42.18332031 226.30246094 -42.72601563 226.52289063 -43.28515625 226.75 C-53.27560365 232.39965599 -60.67873153 243.64909342 -66.640625 253.08203125 C-67.25550781 254.01273438 -67.87039063 254.9434375 -68.50390625 255.90234375 C-82.94701112 278.8960229 -88.03223041 308.07011127 -82.5456543 334.52441406 C-76.35730253 361.55162054 -60.47568178 379.59113242 -37.6015625 394.40234375 C-24.33799356 402.38562932 -8.92727148 405.61094815 6.359375 406.08203125 C5.534375 405.11265625 4.709375 404.14328125 3.859375 403.14453125 C3.30894531 402.49742187 2.75851562 401.8503125 2.19140625 401.18359375 C0.98597045 399.80081238 -0.24557844 398.44029867 -1.50390625 397.10546875 C-25.5889085 371.33113768 -32.93644782 337.76269336 -31.8046875 303.44677734 C-30.24886332 271.53849029 -18.17842018 240.61915201 2.01171875 215.921875 C3.55061722 214.01744318 3.55061722 214.01744318 4.359375 211.08203125 C5.019375 211.08203125 5.679375 211.08203125 6.359375 211.08203125 C8.13419368 209.3659501 8.13419368 209.3659501 9.921875 207.20703125 C10.54191406 206.48773438 11.16195312 205.7684375 11.80078125 205.02734375 C13.40660528 203.16277648 13.40660528 203.16277648 14.359375 201.08203125 C8.16488753 200.80046364 3.23175203 201.6513784 -2.640625 203.58203125 Z M39.359375 220.08203125 C38.57433594 220.73558594 37.78929687 221.38914062 36.98046875 222.0625 C14.6556369 241.24298934 -0.11299258 268.65644639 -2.46850586 298.13720703 C-2.76824899 303.2655782 -2.82496044 308.38344726 -2.828125 313.51953125 C-2.84037109 314.56173828 -2.85261719 315.60394531 -2.86523438 316.67773438 C-2.91364679 342.70747475 8.12049737 365.40473066 25.859375 383.95703125 C41.31113247 398.73462827 61.74649523 407.53257803 83.12109375 407.15234375 C83.85972656 407.12914062 84.59835937 407.1059375 85.359375 407.08203125 C84.51375 406.09203125 83.668125 405.10203125 82.796875 404.08203125 C82.24515625 403.43363281 81.6934375 402.78523437 81.125 402.1171875 C80.01204269 400.83433184 78.87894237 399.56842589 77.71875 398.328125 C55.48400947 374.27512298 48.07328786 340.23322484 49.25439453 308.29199219 C50.86281068 274.43296206 62.28842339 244.33832295 86.80078125 220.4375 C88.359375 219.08203125 88.359375 219.08203125 90.359375 218.08203125 C90.359375 217.42203125 90.359375 216.76203125 90.359375 216.08203125 C90.87242187 215.84484375 91.38546875 215.60765625 91.9140625 215.36328125 C95.2270984 213.62737745 98.34465724 211.60828209 101.484375 209.58203125 C102.11730469 209.17855469 102.75023437 208.77507812 103.40234375 208.359375 C105.92691179 206.73528983 108.23027528 205.21113097 110.359375 203.08203125 C85.14054493 195.4859981 58.81362637 203.16371581 39.359375 220.08203125 Z M-100.640625 232.08203125 C-101.71957031 232.64019531 -102.79851562 233.19835937 -103.91015625 233.7734375 C-125.13333327 244.93247899 -144.47078145 257.75741864 -163.44921875 272.3996582 C-164.91605002 273.52576496 -166.4092232 274.61832557 -167.92578125 275.67651367 C-168.49167969 276.14033447 -169.05757813 276.60415527 -169.640625 277.08203125 C-169.640625 277.74203125 -169.640625 278.40203125 -169.640625 279.08203125 C-170.50300781 279.46875 -170.50300781 279.46875 -171.3828125 279.86328125 C-186.32270392 287.92772091 -200.46055603 305.84794159 -210.640625 319.08203125 C-211.74762191 320.44074307 -212.8572297 321.79732987 -213.96875 323.15234375 C-232.02210934 345.39536264 -243.24842263 370.92882186 -240.640625 400.08203125 C-238.36613559 419.62747688 -231.92824849 436.08372805 -220.640625 452.08203125 C-220.13692383 452.80600098 -219.63322266 453.5299707 -219.11425781 454.27587891 C-212.76161625 463.38413651 -206.27826523 472.01009383 -198.640625 480.08203125 C-196.86206607 482.10901238 -195.10087903 484.14976583 -193.34375 486.1953125 C-191.19234646 488.57863339 -188.91924448 490.82001978 -186.640625 493.08203125 C-185.65752792 494.08594255 -184.67581396 495.0912097 -183.6953125 496.09765625 C-173.88543767 506.10901957 -163.44677035 515.44031107 -151.640625 523.08203125 C-150.980625 523.08203125 -150.320625 523.08203125 -149.640625 523.08203125 C-149.640625 523.74203125 -149.640625 524.40203125 -149.640625 525.08203125 C-147.83952436 526.34857251 -145.96979125 527.51772644 -144.078125 528.64453125 C-142.86189848 529.36965635 -141.64575559 530.09492173 -140.4296875 530.8203125 C-139.79708008 531.19494629 -139.16447266 531.56958008 -138.51269531 531.95556641 C-136.773434 533.00211723 -135.06113803 534.09312802 -133.3515625 535.1875 C-125.30871626 540.30695669 -116.9161999 544.45468003 -108.265625 548.45703125 C-106.60720581 549.22515137 -106.60720581 549.22515137 -104.9152832 550.00878906 C-98.90766556 552.74129635 -92.93348499 555.10632793 -86.640625 557.08203125 C-84.90826489 557.71924903 -83.178528 558.36370923 -81.453125 559.01953125 C-27.30577463 578.75055461 35.09794872 577.30037541 89.359375 559.08203125 C90.44863281 558.72625 91.53789062 558.37046875 92.66015625 558.00390625 C115.82244502 550.12595414 137.35476935 539.13774542 157.359375 525.08203125 C158.24367188 524.46070313 159.12796875 523.839375 160.0390625 523.19921875 C165.46161524 519.31698534 170.76972215 515.28386176 176.046875 511.20703125 C176.67190918 510.73031982 177.29694336 510.2536084 177.94091797 509.76245117 C179.45200053 508.58309548 180.91119374 507.33782638 182.359375 506.08203125 C182.359375 505.42203125 182.359375 504.76203125 182.359375 504.08203125 C182.92760986 503.83831787 183.49584473 503.59460449 184.08129883 503.34350586 C186.78019001 501.8490068 188.62361799 500.07692484 190.80859375 497.8984375 C191.65228516 497.05893555 192.49597656 496.21943359 193.36523438 495.35449219 C194.25017578 494.46020508 195.13511719 493.56591797 196.046875 492.64453125 C197.4071582 491.27409668 197.4071582 491.27409668 198.79492188 489.87597656 C204.71934737 483.85945045 210.29284847 477.84371339 215.359375 471.08203125 C216.39888268 469.73501537 217.43932666 468.38872176 218.48046875 467.04296875 C219.58726432 465.59867206 220.69273707 464.15336068 221.796875 462.70703125 C222.57901367 461.68851074 222.57901367 461.68851074 223.37695312 460.64941406 C228.04528151 454.51590988 228.04528151 454.51590988 229.234375 447.08203125 C227.84717264 442.32590888 225.43125339 439.79661685 221.359375 437.08203125 C218.51430489 436.88891582 215.76731156 436.81427845 212.92195129 436.83047485 C212.05019074 436.82750471 211.17843018 436.82453458 210.28025264 436.82147443 C207.34668117 436.81381071 204.41330854 436.8203386 201.47973633 436.82666016 C199.38032902 436.82391101 197.28092275 436.82023157 195.18151855 436.81568909 C190.65041005 436.80756181 186.11935094 436.80541267 181.58823586 436.80763626 C174.40250757 436.81046973 167.21687762 436.79611113 160.03117371 436.77865601 C139.59330762 436.73164777 119.15544701 436.70772703 98.7175293 436.70117188 C87.43684675 436.697401 76.15627446 436.67920064 64.87563914 436.64607751 C57.75620288 436.62602306 50.63705422 436.62341599 43.51760161 436.63435769 C39.04773064 436.63699633 34.57802101 436.62280713 30.10819244 436.60427666 C28.06226635 436.59902844 26.01630911 436.60032191 23.97039604 436.60931206 C-13.78608979 436.76158985 -50.29633155 426.62166555 -78.33984375 400.4140625 C-92.11890655 386.44784774 -102.97423756 367.90513803 -108.640625 349.08203125 C-109.01316406 347.91929687 -109.38570312 346.7565625 -109.76953125 345.55859375 C-116.21079157 323.17424821 -114.10259964 297.12848628 -107.640625 275.08203125 C-107.29515625 273.86644531 -106.9496875 272.65085937 -106.59375 271.3984375 C-104.51456074 264.70924254 -101.67979325 258.384409 -98.640625 252.08203125 C-98.3003125 251.36144531 -97.96 250.64085937 -97.609375 249.8984375 C-95.91629287 246.39621519 -94.06329652 243.18552349 -91.890625 239.95703125 C-89.695302 236.55998709 -89.12711377 234.1901211 -89.640625 230.08203125 C-94.35994635 228.55519199 -96.3851131 229.79808624 -100.640625 232.08203125 Z " fill="#000000" transform="translate(395.640625,96.91796875)"/>
<path d="M0 0 C4.65512542 0.47552356 6.78698475 2.24750072 10.125 5.4375 C12.70626878 7.88146725 15.03756553 10.02504369 18 12 C18 12.66 18 13.32 18 14 C18.54398438 14.22558594 19.08796875 14.45117188 19.6484375 14.68359375 C22.70726785 16.39592901 25.09595841 18.67013029 27.625 21.0625 C28.68838509 22.05383291 29.75219425 23.0447111 30.81640625 24.03515625 C31.34766113 24.53160645 31.87891602 25.02805664 32.42626953 25.53955078 C35.55783694 28.44569975 38.7553218 31.27897382 41.94140625 34.125 C42.62074219 34.74375 43.30007812 35.3625 44 36 C44.88171875 36.76570313 44.88171875 36.76570313 45.78125 37.546875 C47 39 47 39 46.9375 42.25 C45.87317899 46.50728404 44.33390699 49.31092121 42 53 C34.97637109 53.50168778 29.04060677 52.19380241 22.32226562 50.33496094 C20.55788419 49.8529218 18.77978208 49.42163885 17 49 C16.67 49.33 16.34 49.66 16 50 C17.89399715 51.75202288 19.79011738 53.50164978 21.6875 55.25 C22.21794922 55.74113281 22.74839844 56.23226562 23.29492188 56.73828125 C25.74991597 58.99747827 28.1805748 61.13848219 30.83203125 63.171875 C33 65 33 65 34 68 C32.78515625 70.91796875 32.78515625 70.91796875 31.0625 74.1875 C30.49660156 75.27417969 29.93070313 76.36085938 29.34765625 77.48046875 C28.90292969 78.31191406 28.45820312 79.14335937 28 80 C21.50137671 80.40103706 15.82021532 78.90387404 9.5625 77.25 C8.5007959 76.97704102 7.4390918 76.70408203 6.34521484 76.42285156 C4.21481598 75.87500706 2.0852384 75.32395771 -0.04345703 74.76953125 C-3.98263772 73.74423831 -7.9271819 72.74144565 -11.875 71.75 C-13.73511719 71.28207031 -13.73511719 71.28207031 -15.6328125 70.8046875 C-19.39730155 69.90505322 -23.16988989 69.14571817 -26.984375 68.4921875 C-29.19748064 67.95177798 -31.00497025 67.08738108 -33 66 C-32.41162314 61.29298514 -30.44104424 55.44104424 -27 52 C-17.63392287 51.91667191 -8.89322641 54.38791847 0 57 C0 56.34 0 55.68 0 55 C-0.53625 54.773125 -1.0725 54.54625 -1.625 54.3125 C-4.82460161 52.54429911 -7.29037223 50.46329797 -10 48 C-10 47.34 -10 46.68 -10 46 C-10.5775 45.731875 -11.155 45.46375 -11.75 45.1875 C-17.61115082 42.09411484 -17.61115082 42.09411484 -18.796875 38.7578125 C-19.06706079 35.08952086 -17.91657825 33.32808153 -16.0625 30.1875 C-15.49660156 29.21167969 -14.93070313 28.23585937 -14.34765625 27.23046875 C-13.90292969 26.49441406 -13.45820312 25.75835937 -13 25 C-6.67250629 25.60171362 -0.62404348 26.62151909 5.5625 28.0625 C6.38041016 28.24876953 7.19832031 28.43503906 8.04101562 28.62695312 C10.02835896 29.08020687 12.01433201 29.53946212 14 30 C12.33424841 28.47816445 10.66734329 26.9575915 9 25.4375 C8.2570166 24.75349121 8.2570166 24.75349121 7.49902344 24.05566406 C4.50818258 21.31550619 1.43589487 18.76369365 -1.75 16.25 C-4.96407517 13.43109801 -4.96407517 13.43109801 -5.25 10 C-3.76408457 6.43380297 -2.03654797 3.28475479 0 0 Z " fill="#000000" transform="translate(68,185)"/>
<path d="M0 0 C7.96379316 7.96379316 12.00774119 19.49192953 16.66699219 29.58544922 C17.31393134 30.96275036 18.01205306 32.31697862 18.75488281 33.64501953 C20.22042569 36.97991088 19.52284118 40.21848495 18.625 43.625 C13.49086103 53.49834418 3.91617221 57.92854613 -5.60205078 62.72412109 C-7.27897797 63.57620885 -8.93523476 64.46862633 -10.58984375 65.36328125 C-13.375 66.625 -13.375 66.625 -17.375 66.625 C-22.5117081 56.94769561 -27.62552578 47.26561292 -32.45483398 37.43041992 C-34.11846929 34.06190918 -35.84299965 30.74831581 -37.68359375 27.47265625 C-38.0604834 26.79557617 -38.43737305 26.11849609 -38.82568359 25.42089844 C-39.54673243 24.13460052 -40.27949561 22.85477262 -41.02587891 21.58300781 C-42.54006215 18.87214355 -43.38149933 16.98046326 -43.32421875 13.84765625 C-42.15268068 11.10442514 -41.28518117 10.54125582 -38.625 9.25 C-37.4184375 8.64285156 -37.4184375 8.64285156 -36.1875 8.0234375 C-34.7953125 7.33121094 -34.7953125 7.33121094 -33.375 6.625 C-31.12374888 5.37725468 -28.87379355 4.12716914 -26.625 2.875 C-18.52084754 -1.62730692 -8.88065423 -3.61804432 0 0 Z M-23.375 17.625 C-16.29708657 32.8393583 -16.29708657 32.8393583 -8.375 47.625 C-6.89469728 46.81457164 -5.41578858 46.00159652 -3.9375 45.1875 C-2.70193359 44.50880859 -2.70193359 44.50880859 -1.44140625 43.81640625 C0.54808798 42.78837603 0.54808798 42.78837603 1.625 41.625 C1.3367209 34.76084095 -0.87831946 29.70722817 -4.0625 23.6875 C-4.69575195 22.39489258 -4.69575195 22.39489258 -5.34179688 21.07617188 C-7.81763951 16.24132569 -7.81763951 16.24132569 -12.20703125 13.30859375 C-16.51101089 13.73846101 -19.68771924 15.44445072 -23.375 17.625 Z " fill="#000000" transform="translate(245.375,46.375)"/>
<path d="M0 0 C5.62422438 4.0377301 9.88473082 8.76946164 13 15 C13 18.3 13 21.6 13 25 C19.6 27.97 26.2 30.94 33 34 C33 39.34522599 32.91690208 39.82297283 29.4375 43.375 C25.58295574 46.94602262 25.58295574 46.94602262 21.625 47.3125 C17.69339781 45.88898886 14.07277751 44.16220384 10.37890625 42.2109375 C7.6638895 40.82890927 4.92428937 39.84650482 2 39 C1.34 39.66 0.68 40.32 0 41 C1.41525178 42.58459815 2.8322642 44.16762391 4.25 45.75 C5.43335938 47.07257813 5.43335938 47.07257813 6.640625 48.421875 C8.91668174 51.00158497 8.91668174 51.00158497 11.359375 53.078125 C13 55 13 55 12.984375 56.98046875 C11.7401953 59.53301203 10.23010346 61.27656655 8.25 63.3125 C7.57453125 64.03050781 6.8990625 64.74851562 6.203125 65.48828125 C4 67 4 67 1.57373047 66.79516602 C-1.31659357 65.90218694 -2.38638401 65.02121825 -4.3828125 62.7890625 C-4.98738281 62.12648437 -5.59195313 61.46390625 -6.21484375 60.78125 C-6.84519531 60.0696875 -7.47554687 59.358125 -8.125 58.625 C-9.4593833 57.1574395 -10.79533078 55.69129976 -12.1328125 54.2265625 C-12.78797852 53.50500977 -13.44314453 52.78345703 -14.11816406 52.04003906 C-16.66858875 49.275204 -19.31794467 46.63747823 -22 44 C-25.6760912 40.36754193 -29.16114803 36.65761187 -32.4921875 32.70703125 C-33.90915029 31.10285317 -35.39763427 29.72660965 -37 28.3125 C-39 26 -39 26 -39.1875 23.5 C-37.8293707 20.64078041 -36.0874322 19.13992461 -33.59375 17.234375 C-31.81829185 15.91283547 -31.81829185 15.91283547 -29.75 13.75 C-27.20024184 11.20024184 -24.59741879 8.74653989 -21.9375 6.3125 C-21.10089844 5.54550781 -20.26429688 4.77851562 -19.40234375 3.98828125 C-13.57979349 -0.8307075 -7.37416956 -1.66540234 0 0 Z M-14.75 19 C-15.36359375 19.556875 -15.9771875 20.11375 -16.609375 20.6875 C-17.06828125 21.120625 -17.5271875 21.55375 -18 22 C-16.69628054 24.96184809 -15.42071276 26.75770306 -12.875 28.75 C-11.92625 29.4925 -10.9775 30.235 -10 31 C-7.69 28.36 -5.38 25.72 -3 23 C-4.07401108 20.08482708 -4.77810176 18.22189824 -7 16 C-11.36795404 16 -11.74658993 16.22762148 -14.75 19 Z " fill="#000000" transform="translate(153,106)"/>
<path d="M0 0 C4.31236921 -0.08789715 8.6245045 -0.1406923 12.9375 -0.1875 C14.14986328 -0.21263672 15.36222656 -0.23777344 16.61132812 -0.26367188 C24.98522998 -0.33175238 32.5095306 0.10751138 39.375 5.3125 C43.28154659 9.31205961 44.85321399 12.20921068 45.3125 17.8125 C45.03562962 23.83443067 44.59887576 29.20126478 40.5 33.8125 C39.675 34.534375 38.85 35.25625 38 36 C36.54941815 37.6589561 36.54941815 37.6589561 36 40 C36.673299 42.56731838 37.41209676 44.85904201 38.375 47.3125 C40.31289187 52.31367407 41.39918724 56.56967702 41 62 C40.67 62.33 40.34 62.66 40 63 C37.64305046 62.90968426 35.28846418 62.75311872 32.9375 62.5625 C31.64714844 62.46066406 30.35679687 62.35882813 29.02734375 62.25390625 C28.02832031 62.17011719 27.02929688 62.08632812 26 62 C23.15262441 54.71837152 20.39690506 47.44302097 18 40 C17.01 40 16.02 40 15 40 C14.94465088 40.60062256 14.88930176 41.20124512 14.83227539 41.82006836 C14.58029218 44.52633131 14.3214883 47.23189884 14.0625 49.9375 C13.97548828 50.88302734 13.88847656 51.82855469 13.79882812 52.80273438 C13.71181641 53.70185547 13.62480469 54.60097656 13.53515625 55.52734375 C13.41732788 56.77632446 13.41732788 56.77632446 13.29711914 58.05053711 C13 60 13 60 12 61 C9.46458702 60.90913549 6.96445216 60.7629055 4.4375 60.5625 C3.72658203 60.51029297 3.01566406 60.45808594 2.28320312 60.40429688 C0.52178001 60.27425893 -1.23916173 60.13773103 -3 60 C-3.24067349 46.20755766 -3.0011365 32.50922253 -2.0625 18.75 C-1.97564941 17.46013184 -1.88879883 16.17026367 -1.79931641 14.84130859 C-1.08479373 4.91591509 -1.08479373 4.91591509 0 0 Z M16 14 C14.82428549 17.67410785 14.92633254 21.16929183 15 25 C20.57692868 26.09139941 20.57692868 26.09139941 26 24.9375 C28.33811184 23.09046945 28.33811184 23.09046945 28.3125 19.8125 C28.209375 18.884375 28.10625 17.95625 28 17 C22.26709085 14.29155119 22.26709085 14.29155119 16 14 Z " fill="#000000" transform="translate(401,6)"/>
<path d="M0 0 C3.34673224 1.86308441 6.3027374 4.13932417 9.3125 6.5 C10.14265625 7.13349365 10.9728125 7.7669873 11.828125 8.41967773 C14.23214874 10.26324703 16.61750321 12.12874191 19 14 C20.19123116 14.91819595 21.38261468 15.8361943 22.57421875 16.75390625 C32.27201222 24.40597026 32.27201222 24.40597026 33.43359375 30.140625 C33.45205744 40.11101976 28.7389969 47.87401119 22 55 C17.72207568 58.93019134 13.5938781 61.37993735 7.75 62 C0.58976548 61.57237488 -4.02371184 56.9326691 -9.20849609 52.48046875 C-12.95977274 49.38047671 -16.99454563 46.63923775 -20.97558594 43.84448242 C-25.59228417 40.52397267 -29.49703121 37.67487945 -30.6015625 31.80078125 C-30.65969577 23.14861239 -29.26343723 17.86478222 -24 11 C-23.401875 10.0925 -22.80375 9.185 -22.1875 8.25 C-16.0453412 1.93235095 -8.92617741 -2.61159746 0 0 Z M-12.3125 18.5625 C-14.70638286 22.0203308 -14.65011785 23.8565822 -14 28 C-11.77297505 30.54348287 -9.11028308 32.31500636 -6.3125 34.1875 C-4.87082431 35.20143992 -3.42941215 36.21575466 -1.98828125 37.23046875 C-1.29863281 37.70154053 -0.60898438 38.1726123 0.1015625 38.65795898 C2 40 2 40 4.79296875 42.359375 C7.02667635 44.35258944 7.02667635 44.35258944 10.625 44.0625 C14.08679188 43.29009574 14.08679188 43.29009574 16 40.75 C17.20046506 37.44872109 17.17642978 36.29497968 16 33 C14.00210308 31.14879154 12.13990187 29.62314644 9.9375 28.0625 C9.34839844 27.6308252 8.75929688 27.19915039 8.15234375 26.75439453 C6.97717747 25.89331463 5.79868211 25.03675737 4.61669922 24.18505859 C1.92556288 22.21242558 -0.64246442 20.08051791 -3.21875 17.9609375 C-6.5874668 16.14360344 -9.21342335 16.46852929 -12.3125 18.5625 Z " fill="#000000" transform="translate(112,147)"/>
<path d="M0 0 C7.58874012 3.856388 14.14103817 11.46844665 18 19 C18.95697307 24.4159128 19.31824488 29.79636676 16.4296875 34.625 C14.71255798 36.57154359 12.98187196 38.32653158 11 40 C6.75128382 39.50750176 4.91041775 38.40926002 2.125 35.1875 C1.50882813 34.50042969 0.89265625 33.81335938 0.2578125 33.10546875 C-1 31 -1 31 -0.7578125 28.80078125 C0 27 0 27 1 26 C1.41702122 23.0842309 1.41702122 23.0842309 1 20 C-0.63450124 17.94054984 -0.63450124 17.94054984 -3 17 C-8.22435843 17.69161568 -11.31325257 21.53761055 -15 25 C-15.72123047 25.648479 -15.72123047 25.648479 -16.45703125 26.31005859 C-18.01063204 27.70879095 -19.5378742 29.13229414 -21.0625 30.5625 C-22.02285156 31.45066406 -22.98320313 32.33882812 -23.97265625 33.25390625 C-26.3637039 35.88059272 -26.3637039 35.88059272 -25.80859375 39.33984375 C-25.54175781 40.21769531 -25.27492188 41.09554687 -25 42 C-23.02 42.66 -21.04 43.32 -19 44 C-18.34 43.01 -17.68 42.02 -17 41 C-17.680625 40.443125 -18.36125 39.88625 -19.0625 39.3125 C-21 37 -21 37 -21.125 34.5625 C-19.49695403 30.85417306 -17.35946088 29.19657058 -14 27 C-10.29452526 26.96244451 -8.46704842 28.27350903 -5.921875 30.765625 C-4.85304257 31.9164718 -3.79600758 33.07836897 -2.75 34.25 C-2.20859375 34.82363281 -1.6671875 35.39726562 -1.109375 35.98828125 C1.12477289 38.44025855 2.8046591 40.55682865 4.1484375 43.60546875 C3.92009274 47.28903022 2.02153019 48.59520168 -0.625 51.0625 C-1.50414062 51.89910156 -2.38328125 52.73570312 -3.2890625 53.59765625 C-9.16687819 58.80638341 -12.74779732 61.28602097 -20.63671875 61.234375 C-24.2035866 60.88063604 -26.82209025 59.62276243 -30 58 C-30 57.34 -30 56.68 -30 56 C-30.87978516 55.61714844 -30.87978516 55.61714844 -31.77734375 55.2265625 C-37.42004768 52.11266262 -41.71060699 46.17244022 -43.625 40.0703125 C-44.59388505 34.72125964 -43.95143015 29.94187042 -40.9375 25.375 C-38.36356829 22.1686165 -35.38440467 19.52499543 -32.2421875 16.88671875 C-29.75364342 14.79269995 -27.34614015 12.62284676 -24.9375 10.4375 C-24.08671875 9.6846875 -23.2359375 8.931875 -22.359375 8.15625 C-20.04143501 6.10425903 -20.04143501 6.10425903 -18.265625 4.09375 C-13.13608029 -1.28973257 -7.07578557 -1.42373382 0 0 Z " fill="#000000" transform="translate(680,122)"/>
<path d="M0 0 C6.79400544 5.09550408 8.41577965 9.80562363 9.6875 17.9375 C9.84694092 18.86908936 10.00638184 19.80067871 10.1706543 20.76049805 C10.48522338 22.61560373 10.79151712 24.47213471 11.08886719 26.33007812 C11.44146919 28.51269292 11.8233966 30.68568619 12.2265625 32.859375 C13.4663387 39.90130383 14.20390909 45.80455051 11.375 52.5625 C7.01646229 57.93802985 2.20943869 60.29754576 -4.5 61.875 C-8.25390625 62.2109375 -8.25390625 62.2109375 -12.0625 62.25 C-13.95162109 62.29253906 -13.95162109 62.29253906 -15.87890625 62.3359375 C-20.90458849 61.69620664 -23.99890968 59.58313726 -27.3125 55.8125 C-29.9562255 51.49905314 -29.65786633 47.76885636 -29.5 42.875 C-27.55909174 40.93409174 -24.02706098 41.47580565 -21.4375 41.3125 C-20.14714844 41.22871094 -18.85679687 41.14492188 -17.52734375 41.05859375 C-16.52832031 40.99800781 -15.52929688 40.93742188 -14.5 40.875 C-13.51 42.855 -12.52 44.835 -11.5 46.875 C-8.035 46.38 -8.035 46.38 -4.5 45.875 C-4.83 43.235 -5.16 40.595 -5.5 37.875 C-6.19351562 38.03355469 -6.88703125 38.19210937 -7.6015625 38.35546875 C-13.93307648 39.49036277 -21.60096043 40.28248634 -27.5625 37.4375 C-33.09565539 32.61070487 -35.0359584 25.94157664 -35.69140625 18.78515625 C-35.89722735 14.79488274 -35.69807192 12.30415582 -34 8.625 C-25.44383279 -0.78678393 -12.10824678 -3.89193647 0 0 Z M-18.5 14.875 C-18.79562367 20.19670494 -18.79562367 20.19670494 -16.5 24.875 C-12.44554358 25.30632515 -10.95029042 25.17519361 -7.5 22.875 C-7.83 19.905 -8.16 16.935 -8.5 13.875 C-12.70803567 12.47232144 -14.71674266 12.78768561 -18.5 14.875 Z " fill="#000000" transform="translate(474.5,728.125)"/>
<path d="M0 0 C3.78003253 2.47596536 5.42028296 5.31399358 7.1875 9.4375 C7.046875 11.48046875 7.046875 11.48046875 6.1875 13.4375 C4.296875 14.95703125 4.296875 14.95703125 1.9375 16.25 C1.16921875 16.68957031 0.4009375 17.12914062 -0.390625 17.58203125 C-3.34783442 18.62659393 -4.87216901 18.47845611 -7.8125 17.4375 C-8.4725 16.4475 -9.1325 15.4575 -9.8125 14.4375 C-11.7925 14.7675 -13.7725 15.0975 -15.8125 15.4375 C-16.97087626 19.49181692 -16.64941257 21.65562119 -14.8125 25.4375 C-14.173125 24.839375 -13.53375 24.24125 -12.875 23.625 C-7.17247726 19.55176947 -0.83973287 17.6419642 6.1875 18.4375 C12.16589652 20.38962947 14.88780137 24.36628175 18.1875 29.4375 C19.115625 30.860625 19.115625 30.860625 20.0625 32.3125 C21.66303149 36.75842079 21.86559066 40.76705534 21.1875 45.4375 C17.64967147 52.64922738 11.16212465 56.886782 4.1875 60.4375 C-1.30025278 62.21731171 -8.2260966 62.41458573 -13.625 60.375 C-19.53032521 55.1445691 -22.58680144 48.19815019 -25.96484375 41.20703125 C-27.19196855 38.67044638 -28.47499806 36.17721518 -29.81640625 33.69921875 C-36.01087643 22.14840804 -36.01087643 22.14840804 -34.8125 15.4375 C-32.65765614 8.3983434 -26.56569466 4.44037853 -20.31640625 1.10546875 C-13.56369296 -1.87583837 -6.87809066 -3.38050839 0 0 Z M-7.8125 37.4375 C-7.28180939 41.25847239 -6.31548434 43.49921403 -3.8125 46.4375 C-0.3475 45.9425 -0.3475 45.9425 3.1875 45.4375 C4.14690187 40.73357688 4.14690187 40.73357688 3.5 36.0625 C2.27869551 34.34889462 2.27869551 34.34889462 0.4375 33.4375 C-3.07171527 33.4375 -5.08228089 35.38983567 -7.8125 37.4375 Z " fill="#000000" transform="translate(574.8125,693.5625)"/>
<path d="M0 0 C2.8347384 2.56987648 4.78326192 5.34978576 6 9 C6.03954234 11.33299825 6.04401732 13.66708189 6 16 C-3.89552239 19.62189055 -3.89552239 19.62189055 -8 19 C-8.66 18.34 -9.32 17.68 -10 17 C-10 15.68 -10 14.36 -10 13 C-11.27875 12.979375 -12.5575 12.95875 -13.875 12.9375 C-14.59429687 12.92589844 -15.31359375 12.91429687 -16.0546875 12.90234375 C-18.08185404 12.87350758 -18.08185404 12.87350758 -20 14 C-20 15.65 -20 17.3 -20 19 C-17.38908641 19.87030453 -15.46423353 20.21315771 -12.76171875 20.4296875 C-11.94123047 20.50316406 -11.12074219 20.57664062 -10.27539062 20.65234375 C-8.56241676 20.79972414 -6.84885607 20.94044888 -5.13476562 21.07421875 C-0.14945992 21.53416095 3.67563201 22.26145571 8 25 C12.86127874 31.07659843 14.5192036 36.93010509 14.30078125 44.609375 C13.71838931 49.23825638 11.54910139 51.71114765 8.046875 54.625 C-0.53271193 60.86469959 -9.55111663 61.95396367 -20 61 C-24.76297755 59.38398976 -27.30464153 57.23556331 -30 53 C-31.42511318 49.00968309 -32.60709689 45.24967825 -32 41 C-28.91898312 38.94598874 -27.02441289 38.41866552 -23.4375 37.75 C-22.46683594 37.55921875 -21.49617188 37.3684375 -20.49609375 37.171875 C-19.67238281 37.11515625 -18.84867187 37.0584375 -18 37 C-15.3534665 39.6465335 -14.40058003 42.56221264 -13 46 C-7.6913151 45.41825155 -7.6913151 45.41825155 -3 43 C-3.33 41.35 -3.66 39.7 -4 38 C-9.94800588 36.93081221 -15.77031001 35.97282564 -21.8125 35.6875 C-26.11943789 35.29652437 -29.19519229 34.56575445 -32.5625 31.78125 C-36.38881767 27.03994333 -37.72334828 21.10946937 -38.5 15.1875 C-37.60731137 9.49661001 -34.58984314 6.2782583 -30.25 2.75 C-22.09597408 -2.9652989 -9.04270452 -4.63768208 0 0 Z " fill="#000000" transform="translate(320,19)"/>
<path d="M0 0 C6.51471256 2.2518701 11.82471134 5.69100877 15.3125 11.75 C17.63363248 17.09780743 16.6064919 21.45666994 14.6875 26.875 C14.378125 27.535 14.06875 28.195 13.75 28.875 C7.92728663 29.47220137 3.8290596 27.403243 -1.25 24.875 C-1.25 21.905 -1.25 18.935 -1.25 15.875 C-5.42908064 13.78545968 -6.05410573 13.70947381 -10.25 14.875 C-10.72147622 17.18909063 -10.72147622 17.18909063 -10.25 19.875 C-7.81244711 22.21688939 -7.81244711 22.21688939 -4.625 24.25 C1.02603206 28.20646895 6.48676696 32.08530088 8.75 38.875 C9.39630594 45.20879824 7.80085914 50.3778727 4.75 55.875 C1.77081983 59.21137779 -1.4343553 61.73954301 -5.97265625 62.078125 C-17.13720473 62.23482042 -25.59720338 60.24718272 -34.25 52.875 C-37.54509775 49.10158161 -38.89424864 45.06528356 -38.65625 40.0078125 C-37.89539209 36.01330848 -36.11095803 32.46399049 -34.25 28.875 C-28.47621075 29.3561491 -24.29140164 31.05967181 -19.25 33.875 C-20.18814433 38.69974227 -20.18814433 38.69974227 -21 41 C-21.45393063 42.92783597 -21.45393063 42.92783597 -20.25 44.5625 C-17.38430159 46.44311458 -14.61601411 46.5574515 -11.25 46.875 C-10.59 45.225 -9.93 43.575 -9.25 41.875 C-11.86108949 39.21081997 -14.49439551 36.62333139 -17.29296875 34.15625 C-17.80923828 33.69863281 -18.32550781 33.24101563 -18.85742188 32.76953125 C-19.91741076 31.83401572 -20.98260986 30.90437311 -22.05273438 29.98046875 C-26.3200781 26.16938191 -27.97485783 23.25956547 -28.625 17.625 C-27.89106622 10.28566221 -24.92130357 4.65083458 -19.25 -0.125 C-13.79496005 -2.85251998 -5.7127101 -1.50801354 0 0 Z " fill="#000000" transform="translate(292.25,713.125)"/>
<path d="M0 0 C1.859375 2.265625 1.859375 2.265625 3.75 5.25 C4.38421875 6.22453125 5.0184375 7.1990625 5.671875 8.203125 C7 11 7 11 7.0546875 13.1015625 C5.43181179 16.02273878 3.15002513 17.29523891 0.375 19.125 C-0.19750488 19.5075293 -0.77000977 19.89005859 -1.35986328 20.28417969 C-3.23326975 21.53311733 -5.11659293 22.76620715 -7 24 C-8.98030098 25.31594827 -10.95784342 26.63596392 -12.93505859 27.95654297 C-14.19139791 28.79420792 -15.44943328 29.62933696 -16.70947266 30.46142578 C-20.87512656 33.2168501 -24.94903747 36.07833393 -29 39 C-28.46930939 42.82097239 -27.50298434 45.06171403 -25 48 C-20.68433095 47.49846601 -18.0201439 46.6819272 -14.5625 44.0625 C-9.61782842 40.42891558 -4.5621239 37.01865768 0.55834961 33.64086914 C1.16171143 33.2411792 1.76507324 32.84148926 2.38671875 32.4296875 C2.98274902 32.03749023 3.5787793 31.64529297 4.19287109 31.24121094 C5.44603709 30.38048466 6.67192614 29.47920033 7.87353516 28.54785156 C12.53982895 24.94654147 12.53982895 24.94654147 15.1015625 25.24414062 C17.80750928 26.32150832 18.65263902 27.93658333 20.1875 30.375 C20.69667969 31.16648438 21.20585938 31.95796875 21.73046875 32.7734375 C23 35 23 35 24 38 C17.88185346 43.67047728 11.00983364 48.10048793 4.05224609 52.65039062 C1.96998598 54.01973798 -0.10050447 55.40530317 -2.16796875 56.796875 C-2.84150391 57.2496582 -3.51503906 57.70244141 -4.20898438 58.16894531 C-5.49893605 59.03676571 -6.78804097 59.90584646 -8.07617188 60.77636719 C-14.2335463 64.90268671 -18.49285516 67.31556075 -26 66 C-34.58280638 62.43595328 -40.14488477 54.70093042 -44.19921875 46.60546875 C-46.73094317 40.06422601 -46.43630037 34.26431903 -43.625 27.875 C-39.70299035 23.57946562 -34.94957723 20.98997449 -30 18 C-28.01322674 16.69904307 -26.03407207 15.38638085 -24.0625 14.0625 C-23.07507813 13.40121094 -22.08765625 12.73992187 -21.0703125 12.05859375 C-20.05710937 11.37925781 -19.04390625 10.69992188 -18 10 C-15.81289594 8.54107294 -13.62540546 7.08272496 -11.4375 5.625 C-10.46683594 4.97789062 -9.49617187 4.33078125 -8.49609375 3.6640625 C-3 0 -3 0 0 0 Z " fill="#000000" transform="translate(717,162)"/>
<path d="M0 0 C1.27617187 0.02320313 2.55234375 0.04640625 3.8671875 0.0703125 C5.78917969 0.09738281 5.78917969 0.09738281 7.75 0.125 C9.23113281 0.15980469 9.23113281 0.15980469 10.7421875 0.1953125 C12.61486307 7.57202584 13.47079465 14.95105342 14.17480469 22.51464844 C14.3662335 24.56011875 14.5692111 26.60420981 14.7734375 28.6484375 C16.86154406 50.08759738 16.86154406 50.08759738 13.3046875 55.6328125 C8.56109486 61.10532599 1.86531608 63.62546221 -5.2578125 64.1953125 C-11.94283407 64.60796815 -18.40474445 64.86306475 -24.2578125 61.1953125 C-28.9660189 56.84690354 -31.19593437 53.08711866 -31.72265625 46.65234375 C-31.83794678 45.30003662 -31.83794678 45.30003662 -31.95556641 43.92041016 C-32.03468262 42.95925293 -32.11379883 41.9980957 -32.1953125 41.0078125 C-32.89200191 32.87000059 -33.75518412 24.7909577 -34.890625 16.703125 C-35.29683122 12.82255923 -35.3177993 9.09445465 -35.2578125 5.1953125 C-29.77106054 3.32748204 -25.03588274 2.9594729 -19.2578125 3.1953125 C-15.84411053 17.97591573 -14.9292969 33.08691361 -14.2578125 48.1953125 C-12.44539198 48.22218529 -10.63286017 48.24164965 -8.8203125 48.2578125 C-7.81097656 48.26941406 -6.80164063 48.28101563 -5.76171875 48.29296875 C-3.31760183 48.48143926 -3.31760183 48.48143926 -2.2578125 47.1953125 C-2.29805829 44.98489012 -2.41982443 42.77597343 -2.5703125 40.5703125 C-2.61663818 39.87824707 -2.66296387 39.18618164 -2.71069336 38.47314453 C-3.23098803 31.0039533 -3.90470254 23.54628142 -4.59692383 16.09130859 C-5.53068059 5.82968326 -5.53068059 5.82968326 -5.2578125 2.1953125 C-3.2578125 0.1953125 -3.2578125 0.1953125 0 0 Z " fill="#000000" transform="translate(373.2578125,5.8046875)"/>
<path d="M0 0 C2.63789003 1.03109708 4.56382254 2.16323668 6.7734375 3.9375 C7.48242188 4.47375 8.19140625 5.01 8.921875 5.5625 C10.91560759 8.76935031 10.58799365 10.78166 10.0078125 14.43994141 C8.92093818 18.8945585 7.10829201 22.96366915 5.2109375 27.125 C4.80456055 28.04482666 4.39818359 28.96465332 3.97949219 29.91235352 C2.7953149 32.59175387 1.59745712 35.26471782 0.3984375 37.9375 C-0.69586214 40.41216816 -1.77583728 42.89212509 -2.8515625 45.375 C-3.31820312 46.45007813 -3.78484375 47.52515625 -4.265625 48.6328125 C-5.23916449 51.04104177 -6.1199768 53.40741505 -6.9375 55.8671875 C-7.26379395 56.8408728 -7.26379395 56.8408728 -7.59667969 57.83422852 C-8.19058413 59.64057278 -8.76016026 61.45486375 -9.328125 63.26953125 C-10.6015625 65.9375 -10.6015625 65.9375 -12.41796875 67.04296875 C-16.67746926 66.83723259 -19.43760887 63.83780488 -22.578125 61.19921875 C-24.6015625 58.9375 -24.6015625 58.9375 -24.7890625 55.25 C-24.3971875 54.156875 -24.0053125 53.06375 -23.6015625 51.9375 C-23.4159375 50.968125 -23.2303125 49.99875 -23.0390625 49 C-22.8225 47.9790625 -22.8225 47.9790625 -22.6015625 46.9375 C-23.2615625 46.48375 -23.9215625 46.03 -24.6015625 45.5625 C-25.2615625 45.02625 -25.9215625 44.49 -26.6015625 43.9375 C-26.6015625 43.2775 -26.6015625 42.6175 -26.6015625 41.9375 C-28.2515625 41.2775 -29.9015625 40.6175 -31.6015625 39.9375 C-32.4884375 40.7625 -33.3753125 41.5875 -34.2890625 42.4375 C-36.27929402 44.28887815 -37.32034029 44.89423504 -40.0390625 45.3125 C-43.29586525 44.83589472 -44.54624702 43.68491809 -46.9140625 41.4375 C-47.61144531 40.7878125 -48.30882812 40.138125 -49.02734375 39.46875 C-49.54683594 38.9634375 -50.06632813 38.458125 -50.6015625 37.9375 C-50.59375 35.80078125 -50.59375 35.80078125 -49.6015625 32.9375 C-47.19845325 30.67920352 -44.47695608 28.93282658 -41.7265625 27.125 C-40.16102534 26.06053237 -38.59592079 24.99542821 -37.03125 23.9296875 C-36.26780273 23.41631836 -35.50435547 22.90294922 -34.71777344 22.37402344 C-32.04833047 20.56195579 -29.44629491 18.66717617 -26.8515625 16.75 C-20.84960733 12.36078393 -14.74172485 8.1307816 -8.6015625 3.9375 C-7.58707031 3.16921875 -6.57257812 2.4009375 -5.52734375 1.609375 C-2.6015625 -0.0625 -2.6015625 -0.0625 0 0 Z M-12.6015625 24.9375 C-15.5715625 27.4125 -15.5715625 27.4125 -18.6015625 29.9375 C-17.9415625 31.2575 -17.2815625 32.5775 -16.6015625 33.9375 C-13.54273549 32.40808649 -12.91205016 29.99530454 -11.6015625 26.9375 C-11.9315625 26.2775 -12.2615625 25.6175 -12.6015625 24.9375 Z " fill="#000000" transform="translate(640.6015625,87.0625)"/>
<path d="M0 0 C5.23238718 0.56061291 9.15385931 2.30001593 13.75 4.6875 C14.44939697 5.04545654 15.14879395 5.40341309 15.86938477 5.7722168 C31.64077018 13.92231054 31.64077018 13.92231054 33 18 C32.3984375 20.0078125 32.3984375 20.0078125 31.375 22.125 C31.05273438 22.82882812 30.73046875 23.53265625 30.3984375 24.2578125 C29 26 29 26 26.83984375 26.95703125 C22.71941733 27.01937608 19.80889802 25.40265536 16.1875 23.5625 C15.49462891 23.22412109 14.80175781 22.88574219 14.08789062 22.53710938 C12.38585318 21.70369793 10.69206285 20.85348076 9 20 C8.01 21.98 7.02 23.96 6 26 C9.98777937 28.79144556 13.88220142 30.96307261 18.36328125 32.875 C20 34 20 34 20.8515625 35.859375 C21.03892187 38.56129433 20.35941637 39.89197023 19.0625 42.25 C18.49208984 43.30960938 18.49208984 43.30960938 17.91015625 44.390625 C17.60980469 44.92171875 17.30945313 45.4528125 17 46 C9.9471236 46.9199404 5.73061323 43.8742174 0 40 C-2.87192801 42.67885722 -4.33787273 45.43829872 -6 49 C-5.13375 49.268125 -4.2675 49.53625 -3.375 49.8125 C2.29346189 51.80695881 7.08746812 54.6080137 12 58 C11.42365861 62.75481646 9.44931479 65.97048212 7 70 C0.85981857 69.56645681 -3.71226169 66.67279875 -8.9375 63.6875 C-9.80568359 63.20087891 -10.67386719 62.71425781 -11.56835938 62.21289062 C-14.05132441 60.81845146 -16.52700962 59.41203907 -19 58 C-19.72203613 57.58830566 -20.44407227 57.17661133 -21.18798828 56.75244141 C-22.79280515 55.83638368 -24.39654592 54.91844104 -26 54 C-26.73072017 48.67315585 -24.17145486 44.93739149 -21.6875 40.4375 C-21.24253174 39.61193604 -20.79756348 38.78637207 -20.33911133 37.93579102 C-18.90499448 35.28363659 -17.45478163 32.64087009 -16 30 C-15.51402344 29.11570312 -15.02804688 28.23140625 -14.52734375 27.3203125 C-10.60238721 20.18212488 -10.60238721 20.18212488 -8.84448242 17.02709961 C-5.73489035 11.42796731 -2.82326951 5.74863957 0 0 Z " fill="#000000" transform="translate(230,688)"/>
<path d="M0 0 C4.10446127 0.43618839 6.73871053 1.89796398 10.125 4.1875 C14.82385096 7.28403642 19.60755296 10.02840774 24.58984375 12.640625 C26.89024319 13.93809502 28.9288828 15.36617204 31 17 C30.52389341 21.99911924 28.96837781 24.97832683 26 29 C21.49272353 28.39733215 18.1412037 26.63400206 14.1875 24.4375 C13.59001953 24.10814453 12.99253906 23.77878906 12.37695312 23.43945312 C10.91466002 22.63226733 9.4568601 21.81695083 8 21 C5.41222792 24.05580974 5.41222792 24.05580974 5 28 C7.62637428 29.78980655 7.62637428 29.78980655 10.875 31.4375 C16.55265573 34.43739612 16.55265573 34.43739612 18.53125 36.92578125 C19.20631524 39.91294492 18.20755977 41.18776037 16.625 43.75 C16.14289062 44.54921875 15.66078125 45.3484375 15.1640625 46.171875 C14.77992188 46.77515625 14.39578125 47.3784375 14 48 C10.32617676 47.42231401 7.58823394 46.42308392 4.375 44.5625 C3.61960937 44.13066406 2.86421875 43.69882813 2.0859375 43.25390625 C0.36101146 42.21701251 -1.32542391 41.11638406 -3 40 C-4.65 42.64 -6.3 45.28 -8 48 C-7.09636719 48.55429688 -6.19273437 49.10859375 -5.26171875 49.6796875 C-4.07029421 50.41142856 -2.87888897 51.14320104 -1.6875 51.875 C-1.09259766 52.23980469 -0.49769531 52.60460937 0.11523438 52.98046875 C2.77362299 54.61411539 5.40343737 56.26895824 8 58 C7.5317879 62.77576339 6.75668002 66.04476345 4 70 C-2.15163151 69.57213062 -6.18181382 67.53698536 -11.375 64.3125 C-12.49056274 63.63791748 -12.49056274 63.63791748 -13.62866211 62.94970703 C-18.84530588 59.77515161 -23.99828989 56.50547204 -29 53 C-28.72016587 47.68315145 -26.52981802 44.2415259 -23.78125 39.859375 C-21.91596742 36.86510559 -20.17185989 33.82187472 -18.4375 30.75 C-14.71313346 24.18958756 -10.89504958 17.68519231 -7.0625 11.1875 C-6.48234131 10.20168945 -5.90218262 9.21587891 -5.30444336 8.20019531 C-4.49052124 6.82299316 -4.49052124 6.82299316 -3.66015625 5.41796875 C-3.17168213 4.59063232 -2.68320801 3.7632959 -2.17993164 2.91088867 C-1 1 -1 1 0 0 Z " fill="#000000" transform="translate(582,50)"/>
<path d="M0 0 C5.59761016 2.63416949 8.81992388 13.24672849 11.4375 18.625 C11.90478516 19.553125 12.37207031 20.48125 12.85351562 21.4375 C13.28986328 22.33726562 13.72621094 23.23703125 14.17578125 24.1640625 C14.57450439 24.97311035 14.97322754 25.7821582 15.3840332 26.61572266 C16.28625741 29.51889288 16.10763753 31.13883517 15.125 34 C11.5458085 36.35901258 8.42399805 37.81332395 4.125 37 C1.36351377 33.93898749 -0.03541541 30.5470752 -1.5625 26.75 C-1.99949219 25.67234375 -2.43648437 24.5946875 -2.88671875 23.484375 C-3.37591797 22.25460938 -3.37591797 22.25460938 -3.875 21 C-6.515 21.66 -9.155 22.32 -11.875 23 C-9.565 28.61 -7.255 34.22 -4.875 40 C-9.85745614 44.98245614 -9.85745614 44.98245614 -14.5 45.0625 C-16.170625 45.0315625 -16.170625 45.0315625 -17.875 45 C-18.87960531 42.87717331 -19.87855602 40.75166979 -20.875 38.625 C-21.431875 37.44164062 -21.98875 36.25828125 -22.5625 35.0390625 C-23.875 32 -23.875 32 -23.875 30 C-26.845 31.32 -29.815 32.64 -32.875 34 C-31.05937855 40.05737493 -31.05937855 40.05737493 -28.1875 45.625 C-26.41960351 48.82405078 -26.66375678 51.40886533 -26.875 55 C-31.27121663 57.06880783 -33.98518782 58.0844892 -38.875 58 C-39.22804199 57.26362305 -39.58108398 56.52724609 -39.94482422 55.76855469 C-41.54620765 52.42887243 -43.14809823 49.08943367 -44.75 45.75 C-45.30558594 44.59113281 -45.86117187 43.43226563 -46.43359375 42.23828125 C-47.23603516 40.56572266 -47.23603516 40.56572266 -48.0546875 38.859375 C-48.54694824 37.83295898 -49.03920898 36.80654297 -49.54638672 35.74902344 C-50.34970378 34.08688635 -51.17578555 32.43513152 -52.04345703 30.80566406 C-53.12099499 28.4658312 -53.0162957 26.54332266 -52.875 24 C-44.15545224 19.51029909 -35.32834822 15.3511237 -26.37255859 11.35571289 C-0.92035092 0 -0.92035092 0 0 0 Z " fill="#000000" transform="translate(748.875,217)"/>
<path d="M0 0 C1.61455078 0.32291016 1.61455078 0.32291016 3.26171875 0.65234375 C4.39222656 0.88566406 5.52273438 1.11898438 6.6875 1.359375 C8.33685547 1.68615234 8.33685547 1.68615234 10.01953125 2.01953125 C16.69979785 3.37460312 23.20135316 5.0119923 29.6875 7.109375 C30.53308985 10.84023627 30.75685425 12.86569897 29.25 16.421875 C28.96253906 17.11925781 28.67507813 17.81664063 28.37890625 18.53515625 C28.15074219 19.05464844 27.92257812 19.57414062 27.6875 20.109375 C20.49479161 19.64689967 13.6844173 18.85860433 6.6875 17.109375 C6.0275 19.749375 5.3675 22.389375 4.6875 25.109375 C5.64011719 25.23054688 6.59273438 25.35171875 7.57421875 25.4765625 C8.82847656 25.64414062 10.08273437 25.81171875 11.375 25.984375 C12.61636719 26.14679687 13.85773438 26.30921875 15.13671875 26.4765625 C18.31973276 27.04383232 20.87030192 27.5309078 23.6875 29.109375 C25.15268697 32.18429654 24.5551636 34.63872062 23.75 37.859375 C23.55535156 38.65859375 23.36070312 39.4578125 23.16015625 40.28125 C22.92619141 41.18617187 22.92619141 41.18617187 22.6875 42.109375 C17.84011213 43.62956173 14.10499161 42.47801209 9.375 41.171875 C8.63443359 40.97658203 7.89386719 40.78128906 7.13085938 40.58007812 C5.31383887 40.0994469 3.50029386 39.60570986 1.6875 39.109375 C1.49414062 40.26695313 1.30078125 41.42453125 1.1015625 42.6171875 C0.83878853 44.15629217 0.57575388 45.69535234 0.3125 47.234375 C0.18617188 47.99492188 0.05984375 48.75546875 -0.0703125 49.5390625 C-0.82006511 53.88762762 -1.78449888 57.95055455 -3.3125 62.109375 C-14.80082346 61.26169288 -14.80082346 61.26169288 -18.3125 59.109375 C-19.75043717 55.56893776 -19.02316751 52.76928152 -18.203125 49.12109375 C-17.8150769 47.35958984 -17.8150769 47.35958984 -17.41918945 45.5625 C-17.13648193 44.31984375 -16.85377441 43.0771875 -16.5625 41.796875 C-15.99791499 39.24887127 -15.43410551 36.70069557 -14.87109375 34.15234375 C-14.59894043 32.9307959 -14.32678711 31.70924805 -14.04638672 30.45068359 C-13.18148574 26.51288094 -12.39018638 22.56766347 -11.625 18.609375 C-8.86403611 4.67462786 -8.86403611 4.67462786 -7.3125 0.109375 C-4.54750426 -1.27312287 -3.01635801 -0.60626798 0 0 Z " fill="#000000" transform="translate(470.3125,10.890625)"/>
<path d="M0 0 C1.57968297 1.57968297 1.209348 3.23369997 1.29711914 5.42797852 C1.3570681 6.83932823 1.3570681 6.83932823 1.41822815 8.27919006 C1.45681442 9.30209641 1.4954007 10.32500275 1.53515625 11.37890625 C1.57813339 12.42070541 1.62111053 13.46250458 1.66539001 14.53587341 C1.80222633 17.87791846 1.93242928 21.22018545 2.0625 24.5625 C2.15386154 26.82228327 2.24565268 29.08204921 2.33789062 31.34179688 C2.56358725 36.8943395 2.78383194 42.4470787 3 48 C3.68707031 47.89300781 4.37414062 47.78601563 5.08203125 47.67578125 C5.98308594 47.55589844 6.88414062 47.43601562 7.8125 47.3125 C9.15248047 47.12107422 9.15248047 47.12107422 10.51953125 46.92578125 C13 47 13 47 14.80151367 48.32983398 C16.45394771 50.63260467 16.36625399 52.25488799 16.3125 55.0625 C16.30863281 55.94035156 16.30476563 56.81820312 16.30078125 57.72265625 C16 60 16 60 14 62 C10.91475061 62.17553419 7.92035798 62.23122797 4.8359375 62.1953125 C3.47512558 62.19106766 3.47512558 62.19106766 2.08682251 62.18673706 C-0.81725123 62.17552153 -3.72101912 62.15041463 -6.625 62.125 C-8.59114139 62.11497197 -10.5572876 62.10584581 -12.5234375 62.09765625 C-17.34907659 62.07557772 -22.1744864 62.04103865 -27 62 C-27 57.71 -27 53.42 -27 49 C-21.06 48.505 -21.06 48.505 -15 48 C-15 37.77 -15 27.54 -15 17 C-15.66 17.33 -16.32 17.66 -17 18 C-18.87379605 18.07033769 -20.75001102 18.0843022 -22.625 18.0625 C-23.62789063 18.05347656 -24.63078125 18.04445313 -25.6640625 18.03515625 C-26.43492187 18.02355469 -27.20578125 18.01195312 -28 18 C-28.24915939 16.23186888 -28.47366632 14.46025018 -28.6875 12.6875 C-28.81511719 11.70136719 -28.94273437 10.71523438 -29.07421875 9.69921875 C-29 7 -29 7 -27.78979492 5.40429688 C-25.61024929 3.69419642 -24.00697699 3.32799145 -21.2890625 2.83203125 C-20.37382812 2.66123047 -19.45859375 2.49042969 -18.515625 2.31445312 C-17.08476562 2.06598633 -17.08476562 2.06598633 -15.625 1.8125 C-14.67882812 1.63525391 -13.73265625 1.45800781 -12.7578125 1.27539062 C-8.45703558 0.49315662 -4.38826309 -0.21555879 0 0 Z " fill="#000000" transform="translate(421,732)"/>
<path d="M0 0 C5.42093458 10.39012461 2.61227859 22.26678366 1.40087891 33.49536133 C1.12534348 36.05930384 0.86096981 38.62422989 0.59765625 41.18945312 C0.42254259 42.84642486 0.24678303 44.50332848 0.0703125 46.16015625 C-0.00686005 46.91353775 -0.08403259 47.66691925 -0.1635437 48.44313049 C-0.58537581 52.28418366 -1.12857128 56.09381289 -1.84033203 59.89233398 C-2.04119919 60.98106056 -2.04119919 60.98106056 -2.24612427 62.09178162 C-3.21278615 64.5386066 -4.37415586 65.26668333 -6.625 66.5625 C-10.85385691 68.27418018 -14.48640896 68.32239936 -19 68 C-19.1908621 60.41438419 -18.66115548 53.18829167 -17.5625 45.6875 C-16.37147735 37.12420672 -15.43422239 28.63952832 -15 20 C-20.90247021 21.36210851 -26.48686843 23.18582407 -32.16796875 25.29296875 C-35.267522 26.06678825 -36.99471686 26.04350109 -40 25 C-42.78554797 20.86970474 -43.12960033 17.87706493 -43 13 C-35.51372709 9.61026179 -28.0467952 6.98742029 -20.14086914 4.78833008 C-16.58699078 3.79354699 -13.14362103 2.70366751 -9.703125 1.36328125 C-6.14192744 0.05224966 -3.74560481 -0.28092036 0 0 Z " fill="#000000" transform="translate(529,710)"/>
<path d="M0 0 C7.48058871 0.73494219 14.83885078 2.19566631 22.22045898 3.58398438 C24.45537693 4.00335451 26.69148958 4.41589597 28.92773438 4.828125 C30.34643107 5.09333895 31.76505373 5.35894933 33.18359375 5.625 C34.46806396 5.86476563 35.75253418 6.10453125 37.07592773 6.3515625 C40 7 40 7 41 8 C41.09886353 9.62252492 41.12971167 11.24947273 41.125 12.875 C41.12886719 14.20144531 41.12886719 14.20144531 41.1328125 15.5546875 C41 18 41 18 40 21 C36.85691721 22.32816109 34.49136376 21.87284094 31.25 21.0625 C30.45078125 20.86785156 29.6515625 20.67320312 28.828125 20.47265625 C28.22484375 20.31667969 27.6215625 20.16070313 27 20 C24.63782168 29.65996499 22.69489051 39.39096129 20.80200195 49.15209961 C19.7490803 54.51979691 18.6158572 59.77266473 17 65 C11.0535148 65.37956289 6.54697672 64.06280001 1 62 C1.69892005 53.97989246 3.31569496 46.24038673 5 38.375 C5.54367788 35.82073976 6.08540806 33.26606402 6.625 30.7109375 C6.98464844 29.02943604 6.98464844 29.02943604 7.3515625 27.31396484 C8.02207619 23.88717537 8.5349183 20.46014206 9 17 C8.30132812 16.87882813 7.60265625 16.75765625 6.8828125 16.6328125 C5.97273438 16.46523438 5.06265625 16.29765625 4.125 16.125 C3.22007812 15.96257813 2.31515625 15.80015625 1.3828125 15.6328125 C-1 15 -1 15 -3 13 C-3.34247495 8.46220695 -3.04161132 5.08322264 -1 1 C-0.67 0.67 -0.34 0.34 0 0 Z " fill="#000000" transform="translate(317,723)"/>
<path d="M0 0 C3.14320995 0.25109808 4.85899306 1.11171227 7.55078125 2.71875 C8.34097656 3.1828125 9.13117187 3.646875 9.9453125 4.125 C10.53699219 4.4859375 11.12867188 4.846875 11.73828125 5.21875 C12.14925061 10.43242007 10.74284651 14.16273711 8.55078125 18.78125 C7.90399489 20.19949456 7.2594912 21.61878218 6.6171875 23.0390625 C6.29766113 23.74192383 5.97813477 24.44478516 5.64892578 25.16894531 C2.17593249 32.98643905 -0.6414259 41.08205114 -3.26171875 49.21875 C-2.26269531 49.64027344 -1.26367188 50.06179687 -0.234375 50.49609375 C1.06906433 51.04935217 2.37244682 51.60274451 3.67578125 52.15625 C4.33513672 52.43404297 4.99449219 52.71183594 5.67382812 52.99804688 C10.625 55.10546875 10.625 55.10546875 11.73828125 56.21875 C12.0222308 59.91009415 11.94022646 62.6604309 10.67578125 66.15625 C8.73828125 68.21875 8.73828125 68.21875 5.61328125 68.78125 C1.65578017 68.20677404 -1.09882361 67.15635573 -4.65625 65.4296875 C-8.78340695 63.5115186 -13.0698851 62.02222582 -17.34375 60.46484375 C-20.03646533 59.31494256 -22.02621381 58.08618148 -24.26171875 56.21875 C-23.77817665 49.54214943 -21.26100125 44.1405923 -18.51171875 38.09375 C-17.59432135 36.03345604 -16.67893957 33.97226334 -15.765625 31.91015625 C-15.11037842 30.43313232 -15.11037842 30.43313232 -14.44189453 28.92626953 C-12.60000682 24.70067277 -10.96687501 20.41473702 -9.3515625 16.09765625 C-3.38141255 0.32704508 -3.38141255 0.32704508 0 0 Z " fill="#000000" transform="translate(538.26171875,29.78125)"/>
<path d="M0 0 C1.6940918 1.72729492 1.6940918 1.72729492 3.19921875 3.98046875 C3.76431152 4.80901367 4.3294043 5.63755859 4.91162109 6.49121094 C5.49766113 7.38098633 6.08370117 8.27076172 6.6875 9.1875 C7.9225529 11.00953784 9.15823441 12.83114972 10.39453125 14.65234375 C11.30452881 16.00755127 11.30452881 16.00755127 12.23291016 17.39013672 C14.71573684 21.0570913 17.28615256 24.65747926 19.875 28.25 C20.68501272 29.38012456 21.49492178 30.51032344 22.3046875 31.640625 C22.86414063 32.41921875 23.42359375 33.1978125 24 34 C28.70302781 33.22883378 31.77245245 30.33244379 35.46484375 27.49609375 C38.31219749 25.81576019 39.75381034 25.47167719 43 26 C45.56665011 28.91349472 46.83988469 31.06932978 47.5 34.90625 C47 38 47 38 44.32421875 40.4921875 C43.12567704 41.30698118 41.91232534 42.10027822 40.6875 42.875 C39.4016955 43.73340479 38.11654734 44.59279344 36.83203125 45.453125 C36.1870166 45.87658203 35.54200195 46.30003906 34.87744141 46.73632812 C31.23104286 49.19065307 27.78795641 51.92293929 24.3046875 54.6015625 C22 56 22 56 18 56 C16.23325241 53.96473118 14.78962703 52.04434435 13.3125 49.8125 C12.87462158 49.17538086 12.43674316 48.53826172 11.9855957 47.88183594 C10.64558501 45.92877216 9.32262789 43.96486064 8 42 C6.56549303 39.91460464 5.12811354 37.83118155 3.6875 35.75 C2.96949219 34.70457031 2.25148437 33.65914062 1.51171875 32.58203125 C-0.42204173 29.79719177 -2.41183601 27.05734708 -4.41796875 24.32421875 C-5.30585083 23.11137207 -5.30585083 23.11137207 -6.21166992 21.87402344 C-7.38482485 20.27564989 -8.56320903 18.68109854 -9.74731445 17.09082031 C-10.28445068 16.35831055 -10.82158691 15.62580078 -11.375 14.87109375 C-11.85710937 14.22068115 -12.33921875 13.57026855 -12.8359375 12.90014648 C-14.07962608 10.87002312 -14.74898502 9.37046234 -15 7 C-10.80771825 1.94460142 -6.69590011 -2.15613253 0 0 Z " fill="#000000" transform="translate(175,81)"/>
<path d="M0 0 C5.77807024 -0.2358396 10.51324804 0.13216954 16 2 C16.16682272 6.92127034 16.24828052 10.50343896 14 15 C3.44191344 15.3690205 3.44191344 15.3690205 -1 13 C-1.0272415 11.58344207 -1.04650467 10.16672955 -1.0625 8.75 C-1.07410156 7.96109375 -1.08570313 7.1721875 -1.09765625 6.359375 C-1.00385306 4.09308998 -0.63241063 2.1711105 0 0 Z " fill="#000000" transform="translate(349,777)"/>
</svg>
